<svg width="268" height="80" viewBox="0 0 268 80" fill="none" xmlns="http://www.w3.org/2000/svg">
<rect x="0.5" y="0.5" width="266.2" height="79" rx="7.5" fill="white"/>
<rect x="0.5" y="0.5" width="266.2" height="79" rx="7.5" stroke="#E1E4EA"/>
<circle cx="39.9998" cy="40" r="17.6327" fill="#1DAF9C" fill-opacity="0.1"/>
<path d="M50.082 36.574C50.0801 36.3621 49.9625 36.1046 49.8156 35.9481C49.177 35.2629 48.4992 34.6152 47.8527 33.9379C47.6529 33.7299 47.4413 33.6567 47.1612 33.6567C42.6379 33.6626 38.1166 33.6606 33.5933 33.6626C33.4738 33.6626 33.3524 33.6725 33.2231 33.6804V41.1391C33.3739 41.1391 33.4954 41.1391 33.6188 41.1391C35.1644 41.1391 36.71 41.149 38.2557 41.1312C38.6044 41.1272 38.8492 41.2401 39.0922 41.4877C40.9395 43.3712 42.7946 45.2467 44.6596 47.1144C44.7791 47.2352 44.9848 47.3243 45.1532 47.3303C45.8448 47.354 46.5402 47.356 47.2317 47.3303C47.4237 47.3223 47.6568 47.2332 47.7939 47.1005C48.4933 46.4271 49.177 45.7379 49.843 45.0309C49.9821 44.8823 50.084 44.6328 50.0859 44.4288C50.1036 42.4997 50.1055 38.503 50.0859 36.574H50.082ZM45.2002 44.2743C43.0591 44.2644 41.3195 42.4958 41.3195 40.3291C41.3195 38.1624 43.061 36.3957 45.2022 36.3858C47.3492 36.3779 49.1064 38.1624 49.1006 40.3489C49.0947 42.5057 47.3297 44.2842 45.2002 44.2743Z" fill="#1DAF9C"/>
<path d="M31.5912 32.1C30.9918 32.1 30.9076 32.1891 30.9076 32.7951C30.9076 37.2474 30.9076 43.7653 30.9076 48.2175C30.9076 48.3324 30.8801 48.4651 30.9291 48.5562C30.9977 48.6849 31.1172 48.8672 31.2288 48.8771C31.6285 48.9167 32.032 48.8929 32.4395 48.8929V32.1C32.1319 32.1 31.8616 32.1 31.5912 32.1Z" fill="#1DAF9C"/>
<path d="M33.2309 47.3243H34.7315V41.9591H33.2309V47.3243Z" fill="#1DAF9C"/>
<path d="M35.5425 47.3184H37.0137V41.9472H35.5425V47.3184Z" fill="#1DAF9C"/>
<path d="M38.7415 42.2205C38.4594 41.971 38.2067 41.8838 37.8462 41.9611V47.3184H39.3468C39.3468 47.1738 39.3468 47.049 39.3468 46.9262C39.3468 45.8587 39.3057 44.7912 39.3625 43.7277C39.3958 43.09 39.2156 42.6384 38.7435 42.2225L38.7415 42.2205Z" fill="#1DAF9C"/>
<path d="M40.1304 47.3204H43.6096C42.4557 46.1518 41.2823 44.9615 40.1304 43.793V47.3204Z" fill="#1DAF9C"/>
<path d="M44.2991 32.8466C44.3716 32.2089 44.2795 32.1 43.6899 32.1C41.8191 32.1 39.9463 32.1 38.0754 32.1C37.4956 32.1 37.3937 32.2188 37.4564 32.8466H44.2991Z" fill="#1DAF9C"/>
<path d="M36.6434 32.8585C36.712 32.2247 36.6043 32.1 36.0244 32.1C35.6718 32.1 35.3211 32.1 34.9685 32.1C34.42 32.1 34.2731 32.302 34.42 32.8585H36.6434Z" fill="#1DAF9C"/>
<path d="M46.7087 37.6316C46.3639 37.5227 46.0211 37.3959 45.6665 37.3147C45.5822 37.2949 45.4059 37.4118 45.3726 37.5029C45.1709 38.0336 45.214 38.5545 45.4804 39.0279C45.8957 38.5565 46.2816 38.1148 46.7087 37.6296V37.6316Z" fill="#1DAF9C"/>
<path d="M45.9329 41.4837C45.9642 42.07 45.9976 42.6641 46.0328 43.3118C46.4011 43.1157 46.789 42.9117 47.1651 42.7117C46.9183 41.9808 46.4442 41.5392 45.9329 41.4817V41.4837Z" fill="#1DAF9C"/>
<path d="M43.7134 43.0286C44.0503 43.1375 44.3834 43.2662 44.7262 43.3415C44.8202 43.3613 45.0141 43.2405 45.0514 43.1414C45.2492 42.6206 45.2042 42.1056 44.9358 41.6283C44.5283 42.0937 44.1404 42.5394 43.7114 43.0266L43.7134 43.0286Z" fill="#1DAF9C"/>
<path d="M44.495 39.2259C44.4578 38.6021 44.4225 38.0079 44.3853 37.3524C44.0229 37.5405 43.637 37.7425 43.2315 37.9544C43.4979 38.6397 43.9054 39.0378 44.495 39.2259Z" fill="#1DAF9C"/>
<path d="M47.3786 38.4099C46.9908 38.5189 46.311 39.1606 46.3423 39.6042C46.9457 39.5626 47.5236 39.523 48.1642 39.4794C47.982 39.1408 47.8312 38.8318 47.6509 38.5387C47.6039 38.4634 47.455 38.3882 47.3786 38.4099Z" fill="#1DAF9C"/>
<path d="M42.3421 40.1429C42.8867 40.339 43.4235 40.3449 43.923 40.0498C43.4646 39.6399 43.0238 39.2477 42.538 38.812C42.4361 39.1626 42.3186 39.5329 42.2265 39.9092C42.2108 39.9766 42.2814 40.1192 42.3441 40.1409L42.3421 40.1429Z" fill="#1DAF9C"/>
<path d="M47.9957 40.4955C47.4844 40.3073 46.977 40.343 46.4932 40.6004C46.9614 41.0203 47.4021 41.4164 47.8801 41.8462C47.9781 41.5214 48.1015 41.1748 48.1759 40.8203C48.1955 40.7252 48.0858 40.5291 47.9957 40.4955Z" fill="#1DAF9C"/>
<path d="M42.2559 41.1748C42.4381 41.5115 42.6046 41.8402 42.7946 42.1551C42.8318 42.2185 42.9709 42.266 43.0473 42.2482C43.4959 42.1492 44.0209 41.5035 44.068 41.0579C43.4764 41.0956 42.9024 41.1332 42.2579 41.1728L42.2559 41.1748Z" fill="#1DAF9C"/>
<path d="M45.2218 39.9092C45.0514 39.9231 44.8927 40.1033 44.7281 40.2102C44.7242 40.2716 44.7203 40.3311 44.7144 40.3925C44.8751 40.5172 45.0239 40.7173 45.2022 40.7509C45.4275 40.7945 45.6175 40.6281 45.6312 40.3608C45.6469 40.0756 45.4725 39.8894 45.2198 39.9112L45.2218 39.9092Z" fill="#1DAF9C"/>
<mask id="path-4-inside-1_3480_14481" fill="white">
<path d="M64 40C64 53.2548 53.2548 64 40 64C26.7452 64 16 53.2548 16 40C16 26.7452 26.7452 16 40 16C53.2548 16 64 26.7452 64 40ZM19.36 40C19.36 51.3992 28.6008 60.64 40 60.64C51.3992 60.64 60.64 51.3992 60.64 40C60.64 28.6008 51.3992 19.36 40 19.36C28.6008 19.36 19.36 28.6008 19.36 40Z"/>
</mask>
<path d="M64 40C64 53.2548 53.2548 64 40 64C26.7452 64 16 53.2548 16 40C16 26.7452 26.7452 16 40 16C53.2548 16 64 26.7452 64 40ZM19.36 40C19.36 51.3992 28.6008 60.64 40 60.64C51.3992 60.64 60.64 51.3992 60.64 40C60.64 28.6008 51.3992 19.36 40 19.36C28.6008 19.36 19.36 28.6008 19.36 40Z" stroke="#1DAF9C" stroke-opacity="0.1" stroke-width="4.89796" mask="url(#path-4-inside-1_3480_14481)"/>
<path d="M40 17.68C40 16.7522 39.2468 15.9939 38.3212 16.0587C32.5695 16.4618 27.133 18.9259 23.0294 23.0294C18.5286 27.5303 16 33.6348 16 40C16 46.3652 18.5286 52.4697 23.0294 56.9706C27.133 61.0741 32.5695 63.5382 38.3212 63.9413C39.2468 64.0061 40 63.2478 40 62.32C40 61.3922 39.2465 60.6471 38.3217 60.5717C33.4621 60.1754 28.8785 58.0679 25.4053 54.5947C21.5346 50.7239 19.36 45.4741 19.36 40C19.36 34.5259 21.5346 29.2761 25.4053 25.4053C28.8785 21.9321 33.4621 19.8246 38.3217 19.4283C39.2465 19.3529 40 18.6078 40 17.68Z" fill="#1DAF9C"/>
<path d="M85.8168 38.2173C84.8068 38.2131 83.9439 37.9467 83.228 37.4183C82.5121 36.8899 81.9645 36.1207 81.5852 35.1108C81.206 34.1009 81.0163 32.8842 81.0163 31.4609C81.0163 30.0419 81.206 28.8295 81.5852 27.8239C81.9688 26.8182 82.5185 26.0511 83.2344 25.5227C83.9545 24.9943 84.8153 24.7301 85.8168 24.7301C86.8182 24.7301 87.6768 24.9964 88.3928 25.5291C89.1087 26.0575 89.6563 26.8246 90.0355 27.8303C90.419 28.8317 90.6108 30.0419 90.6108 31.4609C90.6108 32.8885 90.4212 34.1072 90.0419 35.1172C89.6626 36.1229 89.1151 36.892 88.3991 37.4247C87.6832 37.9531 86.8224 38.2173 85.8168 38.2173ZM85.8168 36.5107C86.7031 36.5107 87.3956 36.0781 87.8942 35.2131C88.397 34.348 88.6484 33.0973 88.6484 31.4609C88.6484 30.3743 88.5334 29.456 88.3033 28.706C88.0774 27.9517 87.7514 27.3807 87.3253 26.9929C86.9034 26.6009 86.4006 26.4048 85.8168 26.4048C84.9347 26.4048 84.2422 26.8395 83.7393 27.7088C83.2365 28.5781 82.983 29.8288 82.9787 31.4609C82.9787 32.5518 83.0916 33.4744 83.3175 34.2287C83.5476 34.9787 83.8736 35.5476 84.2955 35.9354C84.7173 36.3189 85.2244 36.5107 85.8168 36.5107ZM97.1659 38.2173C96.156 38.2131 95.293 37.9467 94.5771 37.4183C93.8612 36.8899 93.3136 36.1207 92.9344 35.1108C92.5551 34.1009 92.3655 32.8842 92.3655 31.4609C92.3655 30.0419 92.5551 28.8295 92.9344 27.8239C93.3179 26.8182 93.8676 26.0511 94.5835 25.5227C95.3037 24.9943 96.1645 24.7301 97.1659 24.7301C98.1673 24.7301 99.026 24.9964 99.7419 25.5291C100.458 26.0575 101.005 26.8246 101.385 27.8303C101.768 28.8317 101.96 30.0419 101.96 31.4609C101.96 32.8885 101.77 34.1072 101.391 35.1172C101.012 36.1229 100.464 36.892 99.7483 37.4247C99.0324 37.9531 98.1716 38.2173 97.1659 38.2173ZM97.1659 36.5107C98.0523 36.5107 98.7447 36.0781 99.2433 35.2131C99.7462 34.348 99.9976 33.0973 99.9976 31.4609C99.9976 30.3743 99.8825 29.456 99.6524 28.706C99.4266 27.9517 99.1006 27.3807 98.6744 26.9929C98.2525 26.6009 97.7497 26.4048 97.1659 26.4048C96.2838 26.4048 95.5913 26.8395 95.0885 27.7088C94.5856 28.5781 94.3321 29.8288 94.3278 31.4609C94.3278 32.5518 94.4408 33.4744 94.6666 34.2287C94.8967 34.9787 95.2227 35.5476 95.6446 35.9354C96.0665 36.3189 96.5736 36.5107 97.1659 36.5107ZM110.791 35.5455V34.8551C110.791 34.3608 110.893 33.9091 111.097 33.5C111.306 33.0866 111.609 32.7564 112.005 32.5092C112.406 32.2578 112.889 32.1321 113.456 32.1321C114.036 32.1321 114.521 32.2557 114.913 32.5028C115.306 32.75 115.602 33.0803 115.802 33.4936C116.007 33.907 116.109 34.3608 116.109 34.8551V35.5455C116.109 36.0398 116.007 36.4936 115.802 36.907C115.597 37.3161 115.297 37.6463 114.901 37.8977C114.509 38.1449 114.027 38.2685 113.456 38.2685C112.881 38.2685 112.395 38.1449 111.999 37.8977C111.602 37.6463 111.302 37.3161 111.097 36.907C110.893 36.4936 110.791 36.0398 110.791 35.5455ZM112.28 34.8551V35.5455C112.28 35.9119 112.367 36.2443 112.542 36.5426C112.717 36.8409 113.021 36.9901 113.456 36.9901C113.886 36.9901 114.187 36.8409 114.357 36.5426C114.528 36.2443 114.613 35.9119 114.613 35.5455V34.8551C114.613 34.4886 114.53 34.1562 114.364 33.858C114.202 33.5597 113.899 33.4105 113.456 33.4105C113.03 33.4105 112.727 33.5597 112.548 33.858C112.369 34.1562 112.28 34.4886 112.28 34.8551ZM104.207 28.054V27.3636C104.207 26.8693 104.309 26.4155 104.514 26.0021C104.722 25.5888 105.025 25.2585 105.421 25.0114C105.822 24.7642 106.306 24.6406 106.872 24.6406C107.452 24.6406 107.938 24.7642 108.33 25.0114C108.722 25.2585 109.018 25.5888 109.218 26.0021C109.418 26.4155 109.519 26.8693 109.519 27.3636V28.054C109.519 28.5483 109.416 29.0021 109.212 29.4155C109.011 29.8246 108.713 30.1548 108.317 30.4062C107.925 30.6534 107.443 30.777 106.872 30.777C106.293 30.777 105.805 30.6534 105.409 30.4062C105.016 30.1548 104.718 29.8246 104.514 29.4155C104.309 29.0021 104.207 28.5483 104.207 28.054ZM105.703 27.3636V28.054C105.703 28.4205 105.788 28.7528 105.958 29.0511C106.133 29.3494 106.438 29.4986 106.872 29.4986C107.298 29.4986 107.597 29.3494 107.767 29.0511C107.942 28.7528 108.029 28.4205 108.029 28.054V27.3636C108.029 26.9972 107.946 26.6648 107.78 26.3665C107.614 26.0682 107.311 25.919 106.872 25.919C106.446 25.919 106.144 26.0682 105.965 26.3665C105.79 26.6648 105.703 26.9972 105.703 27.3636ZM104.814 38L113.814 24.9091H115.342L106.342 38H104.814Z" fill="#0E121B"/>
<path d="M83.75 57.1193C83.108 57.1193 82.5611 56.9446 82.1094 56.5952C81.6577 56.2429 81.3125 55.733 81.0739 55.0653C80.8352 54.3949 80.7159 53.5852 80.7159 52.6364C80.7159 51.6932 80.8352 50.8878 81.0739 50.2202C81.3153 49.5497 81.6619 49.0384 82.1136 48.6861C82.5682 48.331 83.1136 48.1534 83.75 48.1534C84.3864 48.1534 84.9304 48.331 85.3821 48.6861C85.8366 49.0384 86.1832 49.5497 86.4219 50.2202C86.6634 50.8878 86.7841 51.6932 86.7841 52.6364C86.7841 53.5852 86.6648 54.3949 86.4261 55.0653C86.1875 55.733 85.8423 56.2429 85.3906 56.5952C84.9389 56.9446 84.392 57.1193 83.75 57.1193ZM83.75 56.1818C84.3864 56.1818 84.8807 55.875 85.233 55.2614C85.5852 54.6477 85.7614 53.7727 85.7614 52.6364C85.7614 51.8807 85.6804 51.2372 85.5185 50.706C85.3594 50.1747 85.1293 49.7699 84.8281 49.4915C84.5298 49.2131 84.1705 49.0739 83.75 49.0739C83.1193 49.0739 82.6264 49.3849 82.2713 50.0071C81.9162 50.6264 81.7386 51.5028 81.7386 52.6364C81.7386 53.392 81.8182 54.0341 81.9773 54.5625C82.1364 55.0909 82.3651 55.4929 82.6634 55.7685C82.9645 56.044 83.3267 56.1818 83.75 56.1818ZM91.25 57.1193C90.608 57.1193 90.0611 56.9446 89.6094 56.5952C89.1577 56.2429 88.8125 55.733 88.5739 55.0653C88.3352 54.3949 88.2159 53.5852 88.2159 52.6364C88.2159 51.6932 88.3352 50.8878 88.5739 50.2202C88.8153 49.5497 89.1619 49.0384 89.6136 48.6861C90.0682 48.331 90.6136 48.1534 91.25 48.1534C91.8864 48.1534 92.4304 48.331 92.8821 48.6861C93.3366 49.0384 93.6832 49.5497 93.9219 50.2202C94.1634 50.8878 94.2841 51.6932 94.2841 52.6364C94.2841 53.5852 94.1648 54.3949 93.9261 55.0653C93.6875 55.733 93.3423 56.2429 92.8906 56.5952C92.4389 56.9446 91.892 57.1193 91.25 57.1193ZM91.25 56.1818C91.8864 56.1818 92.3807 55.875 92.733 55.2614C93.0852 54.6477 93.2614 53.7727 93.2614 52.6364C93.2614 51.8807 93.1804 51.2372 93.0185 50.706C92.8594 50.1747 92.6293 49.7699 92.3281 49.4915C92.0298 49.2131 91.6705 49.0739 91.25 49.0739C90.6193 49.0739 90.1264 49.3849 89.7713 50.0071C89.4162 50.6264 89.2386 51.5028 89.2386 52.6364C89.2386 53.392 89.3182 54.0341 89.4773 54.5625C89.6364 55.0909 89.8651 55.4929 90.1634 55.7685C90.4645 56.044 90.8267 56.1818 91.25 56.1818Z" fill="#178C7D"/>
<path d="M102.381 47.8636L99.5682 58.3125H98.6477L101.46 47.8636H102.381ZM109.777 57.1193C109.135 57.1193 108.588 56.9446 108.137 56.5952C107.685 56.2429 107.34 55.733 107.101 55.0653C106.863 54.3949 106.743 53.5852 106.743 52.6364C106.743 51.6932 106.863 50.8878 107.101 50.2202C107.343 49.5497 107.689 49.0384 108.141 48.6861C108.596 48.331 109.141 48.1534 109.777 48.1534C110.414 48.1534 110.958 48.331 111.409 48.6861C111.864 49.0384 112.211 49.5497 112.449 50.2202C112.691 50.8878 112.811 51.6932 112.811 52.6364C112.811 53.5852 112.692 54.3949 112.453 55.0653C112.215 55.733 111.87 56.2429 111.418 56.5952C110.966 56.9446 110.419 57.1193 109.777 57.1193ZM109.777 56.1818C110.414 56.1818 110.908 55.875 111.26 55.2614C111.613 54.6477 111.789 53.7727 111.789 52.6364C111.789 51.8807 111.708 51.2372 111.546 50.706C111.387 50.1747 111.157 49.7699 110.855 49.4915C110.557 49.2131 110.198 49.0739 109.777 49.0739C109.147 49.0739 108.654 49.3849 108.299 50.0071C107.944 50.6264 107.766 51.5028 107.766 52.6364C107.766 53.392 107.846 54.0341 108.005 54.5625C108.164 55.0909 108.392 55.4929 108.691 55.7685C108.992 56.044 109.354 56.1818 109.777 56.1818ZM117.277 57.1193C116.635 57.1193 116.088 56.9446 115.637 56.5952C115.185 56.2429 114.84 55.733 114.601 55.0653C114.363 54.3949 114.243 53.5852 114.243 52.6364C114.243 51.6932 114.363 50.8878 114.601 50.2202C114.843 49.5497 115.189 49.0384 115.641 48.6861C116.096 48.331 116.641 48.1534 117.277 48.1534C117.914 48.1534 118.458 48.331 118.909 48.6861C119.364 49.0384 119.711 49.5497 119.949 50.2202C120.191 50.8878 120.311 51.6932 120.311 52.6364C120.311 53.5852 120.192 54.3949 119.953 55.0653C119.715 55.733 119.37 56.2429 118.918 56.5952C118.466 56.9446 117.919 57.1193 117.277 57.1193ZM117.277 56.1818C117.914 56.1818 118.408 55.875 118.76 55.2614C119.113 54.6477 119.289 53.7727 119.289 52.6364C119.289 51.8807 119.208 51.2372 119.046 50.706C118.887 50.1747 118.657 49.7699 118.355 49.4915C118.057 49.2131 117.698 49.0739 117.277 49.0739C116.647 49.0739 116.154 49.3849 115.799 50.0071C115.444 50.6264 115.266 51.5028 115.266 52.6364C115.266 53.392 115.346 54.0341 115.505 54.5625C115.664 55.0909 115.892 55.4929 116.191 55.7685C116.492 56.044 116.854 56.1818 117.277 56.1818ZM131.425 51C131.331 50.7131 131.208 50.456 131.054 50.2287C130.904 49.9986 130.723 49.8026 130.513 49.6406C130.306 49.4787 130.07 49.3551 129.806 49.2699C129.542 49.1847 129.252 49.142 128.936 49.142C128.419 49.142 127.949 49.2756 127.526 49.5426C127.103 49.8097 126.766 50.2031 126.516 50.723C126.266 51.2429 126.141 51.8807 126.141 52.6364C126.141 53.392 126.267 54.0298 126.52 54.5497C126.773 55.0696 127.115 55.4631 127.547 55.7301C127.979 55.9972 128.465 56.1307 129.005 56.1307C129.505 56.1307 129.945 56.0241 130.326 55.8111C130.709 55.5952 131.007 55.2912 131.221 54.8991C131.436 54.5043 131.544 54.0398 131.544 53.5057L131.868 53.5739H129.243V52.6364H132.567V53.5739C132.567 54.2926 132.414 54.9176 132.107 55.4489C131.803 55.9801 131.382 56.392 130.846 56.6847C130.311 56.9744 129.698 57.1193 129.005 57.1193C128.232 57.1193 127.553 56.9375 126.968 56.5739C126.385 56.2102 125.931 55.6932 125.604 55.0227C125.28 54.3523 125.118 53.5568 125.118 52.6364C125.118 51.946 125.211 51.3253 125.395 50.7741C125.583 50.2202 125.847 49.7486 126.188 49.3594C126.529 48.9702 126.932 48.6719 127.398 48.4645C127.864 48.2571 128.377 48.1534 128.936 48.1534C129.397 48.1534 129.826 48.223 130.223 48.3622C130.624 48.4986 130.98 48.6932 131.293 48.946C131.608 49.196 131.871 49.4957 132.081 49.8452C132.292 50.1918 132.436 50.5767 132.516 51H131.425ZM134.377 57V48.2727H135.383V51.4943H135.468C135.542 51.3807 135.644 51.2358 135.775 51.0597C135.908 50.8807 136.099 50.7216 136.346 50.5824C136.596 50.4403 136.934 50.3693 137.36 50.3693C137.911 50.3693 138.397 50.5071 138.817 50.7827C139.238 51.0582 139.566 51.4489 139.802 51.9545C140.038 52.4602 140.156 53.0568 140.156 53.7443C140.156 54.4375 140.038 55.0384 139.802 55.5469C139.566 56.0526 139.239 56.4446 138.822 56.723C138.404 56.9986 137.923 57.1364 137.377 57.1364C136.957 57.1364 136.62 57.0668 136.367 56.9276C136.114 56.7855 135.92 56.625 135.783 56.446C135.647 56.2642 135.542 56.1136 135.468 55.9943H135.349V57H134.377ZM135.366 53.7273C135.366 54.2216 135.438 54.6577 135.583 55.0355C135.728 55.4105 135.94 55.7045 136.218 55.9176C136.496 56.1278 136.837 56.233 137.241 56.233C137.661 56.233 138.012 56.1222 138.293 55.9006C138.577 55.6761 138.79 55.375 138.933 54.9972C139.077 54.6165 139.15 54.1932 139.15 53.7273C139.15 53.267 139.079 52.8523 138.937 52.483C138.798 52.1108 138.586 51.8168 138.302 51.6009C138.021 51.3821 137.667 51.2727 137.241 51.2727C136.832 51.2727 136.488 51.3764 136.21 51.5838C135.931 51.7884 135.721 52.0753 135.579 52.4446C135.437 52.8111 135.366 53.2386 135.366 53.7273ZM149.194 54.3239V50.4545H150.2V57H149.194V55.892H149.126C148.972 56.2244 148.734 56.5071 148.41 56.7401C148.086 56.9702 147.677 57.0852 147.183 57.0852C146.773 57.0852 146.41 56.9957 146.092 56.8168C145.773 56.6349 145.523 56.3622 145.342 55.9986C145.16 55.6321 145.069 55.1705 145.069 54.6136V50.4545H146.075V54.5455C146.075 55.0227 146.208 55.4034 146.475 55.6875C146.745 55.9716 147.089 56.1136 147.506 56.1136C147.756 56.1136 148.011 56.0497 148.269 55.9219C148.531 55.794 148.749 55.598 148.925 55.3338C149.104 55.0696 149.194 54.733 149.194 54.3239ZM156.678 51.9205L155.775 52.1761C155.718 52.0256 155.634 51.8793 155.523 51.7372C155.415 51.5923 155.267 51.473 155.08 51.3793C154.892 51.2855 154.652 51.2386 154.36 51.2386C153.959 51.2386 153.625 51.331 153.358 51.5156C153.094 51.6974 152.962 51.929 152.962 52.2102C152.962 52.4602 153.053 52.6577 153.235 52.8026C153.417 52.9474 153.701 53.0682 154.087 53.1648L155.059 53.4034C155.644 53.5455 156.08 53.7628 156.367 54.0554C156.654 54.3452 156.797 54.7187 156.797 55.1761C156.797 55.5511 156.689 55.8864 156.473 56.1818C156.26 56.4773 155.962 56.7102 155.578 56.8807C155.195 57.0511 154.749 57.1364 154.24 57.1364C153.573 57.1364 153.02 56.9915 152.583 56.7017C152.145 56.4119 151.868 55.9886 151.752 55.4318L152.706 55.1932C152.797 55.5455 152.969 55.8097 153.222 55.9858C153.478 56.1619 153.811 56.25 154.223 56.25C154.692 56.25 155.064 56.1506 155.34 55.9517C155.618 55.75 155.757 55.5085 155.757 55.2273C155.757 55 155.678 54.8097 155.519 54.6562C155.36 54.5 155.115 54.3835 154.786 54.3068L153.695 54.0511C153.096 53.9091 152.655 53.6889 152.374 53.3906C152.096 53.0895 151.956 52.7131 151.956 52.2614C151.956 51.892 152.06 51.5653 152.267 51.2812C152.478 50.9972 152.763 50.7741 153.124 50.6122C153.488 50.4503 153.9 50.3693 154.36 50.3693C155.007 50.3693 155.516 50.5114 155.885 50.7955C156.257 51.0795 156.522 51.4545 156.678 51.9205ZM161.055 57.1364C160.425 57.1364 159.881 56.9972 159.423 56.7188C158.969 56.4375 158.618 56.0455 158.371 55.5426C158.126 55.0369 158.004 54.4489 158.004 53.7784C158.004 53.108 158.126 52.517 158.371 52.0057C158.618 51.4915 158.962 51.0909 159.402 50.804C159.845 50.5142 160.362 50.3693 160.953 50.3693C161.294 50.3693 161.631 50.4261 161.963 50.5398C162.295 50.6534 162.598 50.8381 162.871 51.0938C163.143 51.3466 163.361 51.6818 163.523 52.0994C163.685 52.517 163.766 53.0312 163.766 53.642V54.0682H158.72V53.1989H162.743C162.743 52.8295 162.669 52.5 162.521 52.2102C162.376 51.9205 162.169 51.6918 161.899 51.5241C161.632 51.3565 161.317 51.2727 160.953 51.2727C160.553 51.2727 160.206 51.3722 159.913 51.571C159.624 51.767 159.401 52.0227 159.244 52.3381C159.088 52.6534 159.01 52.9915 159.01 53.3523V53.9318C159.01 54.4261 159.095 54.8452 159.266 55.1889C159.439 55.5298 159.679 55.7898 159.986 55.9688C160.293 56.1449 160.649 56.233 161.055 56.233C161.32 56.233 161.558 56.196 161.771 56.1222C161.987 56.0455 162.173 55.9318 162.33 55.7812C162.486 55.6278 162.607 55.4375 162.692 55.2102L163.663 55.483C163.561 55.8125 163.389 56.1023 163.148 56.3523C162.906 56.5994 162.608 56.7926 162.253 56.9318C161.898 57.0682 161.499 57.1364 161.055 57.1364ZM167.767 57.1364C167.222 57.1364 166.74 56.9986 166.322 56.723C165.905 56.4446 165.578 56.0526 165.342 55.5469C165.107 55.0384 164.989 54.4375 164.989 53.7443C164.989 53.0568 165.107 52.4602 165.342 51.9545C165.578 51.4489 165.906 51.0582 166.327 50.7827C166.747 50.5071 167.233 50.3693 167.784 50.3693C168.21 50.3693 168.547 50.4403 168.794 50.5824C169.044 50.7216 169.234 50.8807 169.365 51.0597C169.499 51.2358 169.602 51.3807 169.676 51.4943H169.761V48.2727H170.767V57H169.795V55.9943H169.676C169.602 56.1136 169.497 56.2642 169.361 56.446C169.224 56.625 169.03 56.7855 168.777 56.9276C168.524 57.0668 168.188 57.1364 167.767 57.1364ZM167.903 56.233C168.307 56.233 168.648 56.1278 168.926 55.9176C169.205 55.7045 169.416 55.4105 169.561 55.0355C169.706 54.6577 169.778 54.2216 169.778 53.7273C169.778 53.2386 169.707 52.8111 169.565 52.4446C169.423 52.0753 169.213 51.7884 168.935 51.5838C168.656 51.3764 168.313 51.2727 167.903 51.2727C167.477 51.2727 167.122 51.3821 166.838 51.6009C166.557 51.8168 166.345 52.1108 166.203 52.483C166.064 52.8523 165.994 53.267 165.994 53.7273C165.994 54.1932 166.065 54.6165 166.207 54.9972C166.352 55.375 166.565 55.6761 166.847 55.9006C167.131 56.1222 167.483 56.233 167.903 56.233Z" fill="#525866"/>
</svg>
