<svg width="268" height="80" viewBox="0 0 268 80" fill="none" xmlns="http://www.w3.org/2000/svg">
<rect x="0.5" y="0.5" width="266.2" height="79" rx="7.5" fill="white"/>
<rect x="0.5" y="0.5" width="266.2" height="79" rx="7.5" stroke="#E1E4EA"/>
<circle cx="39.9998" cy="40" r="17.6327" fill="#1DAF9C" fill-opacity="0.1"/>
<path d="M50.082 36.574C50.0801 36.3621 49.9625 36.1046 49.8156 35.9482C49.177 35.2629 48.4992 34.6153 47.8527 33.9379C47.6529 33.73 47.4413 33.6567 47.1612 33.6567C42.6379 33.6626 38.1166 33.6606 33.5933 33.6626C33.4738 33.6626 33.3524 33.6725 33.2231 33.6805V41.1391C33.3739 41.1391 33.4954 41.1391 33.6188 41.1391C35.1644 41.1391 36.71 41.149 38.2557 41.1312C38.6044 41.1273 38.8492 41.2401 39.0922 41.4877C40.9395 43.3712 42.7946 45.2468 44.6596 47.1144C44.7791 47.2352 44.9848 47.3243 45.1532 47.3303C45.8448 47.354 46.5402 47.356 47.2317 47.3303C47.4237 47.3224 47.6568 47.2332 47.7939 47.1005C48.4933 46.4272 49.177 45.7379 49.843 45.0309C49.9821 44.8823 50.084 44.6328 50.0859 44.4288C50.1036 42.4998 50.1055 38.503 50.0859 36.574H50.082ZM45.2002 44.2743C43.0591 44.2644 41.3195 42.4958 41.3195 40.3291C41.3195 38.1624 43.061 36.3958 45.2022 36.3859C47.3492 36.3779 49.1064 38.1624 49.1006 40.3489C49.0947 42.5057 47.3297 44.2842 45.2002 44.2743Z" fill="#1DAF9C"/>
<path d="M31.5912 32.1C30.9918 32.1 30.9076 32.1891 30.9076 32.7952C30.9076 37.2474 30.9076 43.7653 30.9076 48.2176C30.9076 48.3324 30.8801 48.4651 30.9291 48.5562C30.9977 48.685 31.1172 48.8672 31.2288 48.8771C31.6285 48.9167 32.032 48.8929 32.4395 48.8929V32.1C32.1319 32.1 31.8616 32.1 31.5912 32.1Z" fill="#1DAF9C"/>
<path d="M33.2309 47.3243H34.7315V41.9591H33.2309V47.3243Z" fill="#1DAF9C"/>
<path d="M35.5425 47.3184H37.0137V41.9472H35.5425V47.3184Z" fill="#1DAF9C"/>
<path d="M38.7415 42.2205C38.4594 41.971 38.2067 41.8838 37.8462 41.9611V47.3184H39.3468C39.3468 47.1738 39.3468 47.0491 39.3468 46.9263C39.3468 45.8588 39.3057 44.7913 39.3625 43.7277C39.3958 43.09 39.2156 42.6384 38.7435 42.2225L38.7415 42.2205Z" fill="#1DAF9C"/>
<path d="M40.1304 47.3204H43.6096C42.4557 46.1519 41.2823 44.9616 40.1304 43.7931V47.3204Z" fill="#1DAF9C"/>
<path d="M44.2991 32.8467C44.3716 32.2089 44.2795 32.1 43.6899 32.1C41.8191 32.1 39.9463 32.1 38.0754 32.1C37.4956 32.1 37.3937 32.2188 37.4564 32.8467H44.2991Z" fill="#1DAF9C"/>
<path d="M36.6434 32.8585C36.712 32.2248 36.6043 32.1 36.0244 32.1C35.6718 32.1 35.3211 32.1 34.9685 32.1C34.42 32.1 34.2731 32.302 34.42 32.8585H36.6434Z" fill="#1DAF9C"/>
<path d="M46.7087 37.6316C46.3639 37.5227 46.0211 37.3959 45.6665 37.3147C45.5822 37.2949 45.4059 37.4118 45.3726 37.5029C45.1709 38.0337 45.214 38.5545 45.4804 39.0279C45.8957 38.5565 46.2816 38.1149 46.7087 37.6296V37.6316Z" fill="#1DAF9C"/>
<path d="M45.9329 41.4838C45.9642 42.07 45.9976 42.6642 46.0328 43.3118C46.4011 43.1157 46.789 42.9117 47.1651 42.7117C46.9183 41.9809 46.4442 41.5392 45.9329 41.4818V41.4838Z" fill="#1DAF9C"/>
<path d="M43.7134 43.0286C44.0503 43.1375 44.3834 43.2662 44.7262 43.3415C44.8202 43.3613 45.0141 43.2405 45.0514 43.1415C45.2492 42.6206 45.2042 42.1057 44.9358 41.6283C44.5283 42.0938 44.1404 42.5394 43.7114 43.0266L43.7134 43.0286Z" fill="#1DAF9C"/>
<path d="M44.495 39.226C44.4578 38.6021 44.4225 38.0079 44.3853 37.3524C44.0229 37.5405 43.637 37.7425 43.2315 37.9545C43.4979 38.6397 43.9054 39.0378 44.495 39.226Z" fill="#1DAF9C"/>
<path d="M47.3786 38.41C46.9908 38.5189 46.311 39.1606 46.3423 39.6042C46.9457 39.5626 47.5236 39.523 48.1642 39.4795C47.982 39.1408 47.8312 38.8318 47.6509 38.5387C47.6039 38.4634 47.455 38.3882 47.3786 38.41Z" fill="#1DAF9C"/>
<path d="M42.3421 40.143C42.8867 40.339 43.4235 40.345 43.923 40.0499C43.4646 39.6399 43.0238 39.2478 42.538 38.812C42.4361 39.1626 42.3186 39.5329 42.2265 39.9092C42.2108 39.9766 42.2814 40.1192 42.3441 40.141L42.3421 40.143Z" fill="#1DAF9C"/>
<path d="M47.9957 40.4955C47.4844 40.3073 46.977 40.343 46.4932 40.6005C46.9614 41.0203 47.4021 41.4164 47.8801 41.8462C47.9781 41.5214 48.1015 41.1748 48.1759 40.8203C48.1955 40.7252 48.0858 40.5292 47.9957 40.4955Z" fill="#1DAF9C"/>
<path d="M42.2559 41.1748C42.4381 41.5115 42.6046 41.8403 42.7946 42.1552C42.8318 42.2185 42.9709 42.2661 43.0473 42.2482C43.4959 42.1492 44.0209 41.5036 44.068 41.0579C43.4764 41.0956 42.9024 41.1332 42.2579 41.1728L42.2559 41.1748Z" fill="#1DAF9C"/>
<path d="M45.2218 39.9092C45.0514 39.9231 44.8927 40.1033 44.7281 40.2103C44.7242 40.2717 44.7203 40.3311 44.7144 40.3925C44.8751 40.5172 45.0239 40.7173 45.2022 40.751C45.4275 40.7945 45.6175 40.6282 45.6312 40.3608C45.6469 40.0756 45.4725 39.8894 45.2198 39.9112L45.2218 39.9092Z" fill="#1DAF9C"/>
<mask id="path-4-inside-1_3471_506" fill="white">
<path d="M64 40C64 53.2548 53.2548 64 40 64C26.7452 64 16 53.2548 16 40C16 26.7452 26.7452 16 40 16C53.2548 16 64 26.7452 64 40ZM19.36 40C19.36 51.3992 28.6008 60.64 40 60.64C51.3992 60.64 60.64 51.3992 60.64 40C60.64 28.6008 51.3992 19.36 40 19.36C28.6008 19.36 19.36 28.6008 19.36 40Z"/>
</mask>
<path d="M64 40C64 53.2548 53.2548 64 40 64C26.7452 64 16 53.2548 16 40C16 26.7452 26.7452 16 40 16C53.2548 16 64 26.7452 64 40ZM19.36 40C19.36 51.3992 28.6008 60.64 40 60.64C51.3992 60.64 60.64 51.3992 60.64 40C60.64 28.6008 51.3992 19.36 40 19.36C28.6008 19.36 19.36 28.6008 19.36 40Z" stroke="#1DAF9C" stroke-opacity="0.1" stroke-width="4.89796" mask="url(#path-4-inside-1_3471_506)"/>
<path d="M40 17.68C40 16.7522 39.2468 15.9939 38.3212 16.0587C32.5695 16.4618 27.133 18.9259 23.0294 23.0294C18.5286 27.5303 16 33.6348 16 40C16 46.3652 18.5286 52.4697 23.0294 56.9706C27.133 61.0741 32.5695 63.5382 38.3212 63.9413C39.2468 64.0061 40 63.2478 40 62.32C40 61.3922 39.2465 60.6471 38.3217 60.5717C33.4621 60.1754 28.8785 58.0679 25.4053 54.5947C21.5346 50.7239 19.36 45.4741 19.36 40C19.36 34.5259 21.5346 29.2761 25.4053 25.4053C28.8785 21.9321 33.4621 19.8246 38.3217 19.4283C39.2465 19.3529 40 18.6078 40 17.68Z" fill="#1DAF9C"/>
<path d="M81.4148 31H80.3068L83.5114 22.2727H84.6023L87.8068 31H86.6989L84.0909 23.6534H84.0227L81.4148 31ZM81.8239 27.5909H86.2898V28.5284H81.8239V27.5909ZM90.0355 22.2727V31H89.0298V22.2727H90.0355ZM92.8832 22.2727V31H91.8775V22.2727H92.8832ZM97.3842 31.1364C96.7933 31.1364 96.2749 30.9957 95.8288 30.7145C95.3857 30.4332 95.0391 30.0398 94.7891 29.5341C94.5419 29.0284 94.4183 28.4375 94.4183 27.7614C94.4183 27.0795 94.5419 26.4844 94.7891 25.9759C95.0391 25.4673 95.3857 25.0724 95.8288 24.7912C96.2749 24.5099 96.7933 24.3693 97.3842 24.3693C97.9751 24.3693 98.4922 24.5099 98.9354 24.7912C99.3814 25.0724 99.728 25.4673 99.9751 25.9759C100.225 26.4844 100.35 27.0795 100.35 27.7614C100.35 28.4375 100.225 29.0284 99.9751 29.5341C99.728 30.0398 99.3814 30.4332 98.9354 30.7145C98.4922 30.9957 97.9751 31.1364 97.3842 31.1364ZM97.3842 30.233C97.8331 30.233 98.2024 30.1179 98.4922 29.8878C98.782 29.6577 98.9964 29.3551 99.1357 28.9801C99.2749 28.6051 99.3445 28.1989 99.3445 27.7614C99.3445 27.3239 99.2749 26.9162 99.1357 26.5384C98.9964 26.1605 98.782 25.8551 98.4922 25.6222C98.2024 25.3892 97.8331 25.2727 97.3842 25.2727C96.9354 25.2727 96.5661 25.3892 96.2763 25.6222C95.9865 25.8551 95.772 26.1605 95.6328 26.5384C95.4936 26.9162 95.424 27.3239 95.424 27.7614C95.424 28.1989 95.4936 28.6051 95.6328 28.9801C95.772 29.3551 95.9865 29.6577 96.2763 29.8878C96.5661 30.1179 96.9354 30.233 97.3842 30.233ZM104.544 31.1364C103.931 31.1364 103.402 30.9915 102.959 30.7017C102.516 30.4119 102.175 30.0128 101.936 29.5043C101.698 28.9957 101.578 28.4148 101.578 27.7614C101.578 27.0966 101.701 26.5099 101.945 26.0014C102.192 25.4901 102.536 25.0909 102.976 24.804C103.419 24.5142 103.936 24.3693 104.527 24.3693C104.988 24.3693 105.402 24.4545 105.772 24.625C106.141 24.7955 106.444 25.0341 106.679 25.3409C106.915 25.6477 107.061 26.0057 107.118 26.4148H106.113C106.036 26.1165 105.865 25.8523 105.601 25.6222C105.34 25.3892 104.988 25.2727 104.544 25.2727C104.152 25.2727 103.809 25.375 103.513 25.5795C103.221 25.7812 102.992 26.0668 102.827 26.4361C102.665 26.8026 102.584 27.233 102.584 27.7273C102.584 28.233 102.664 28.6733 102.823 29.0483C102.985 29.4233 103.212 29.7145 103.505 29.9219C103.8 30.1293 104.147 30.233 104.544 30.233C104.806 30.233 105.043 30.1875 105.256 30.0966C105.469 30.0057 105.65 29.875 105.797 29.7045C105.945 29.5341 106.05 29.3295 106.113 29.0909H107.118C107.061 29.4773 106.921 29.8253 106.696 30.1349C106.475 30.4418 106.181 30.6861 105.814 30.8679C105.451 31.0469 105.027 31.1364 104.544 31.1364ZM110.515 31.1534C110.1 31.1534 109.723 31.0753 109.385 30.919C109.047 30.7599 108.779 30.5312 108.58 30.233C108.381 29.9318 108.282 29.5682 108.282 29.142C108.282 28.767 108.355 28.4631 108.503 28.2301C108.651 27.9943 108.848 27.8097 109.096 27.6761C109.343 27.5426 109.615 27.4432 109.914 27.3778C110.215 27.3097 110.517 27.2557 110.821 27.2159C111.219 27.1648 111.542 27.1264 111.789 27.1009C112.039 27.0724 112.221 27.0256 112.334 26.9602C112.451 26.8949 112.509 26.7812 112.509 26.6193V26.5852C112.509 26.1648 112.394 25.8381 112.164 25.6051C111.936 25.3722 111.591 25.2557 111.128 25.2557C110.648 25.2557 110.272 25.3608 109.999 25.571C109.726 25.7812 109.534 26.0057 109.424 26.2443L108.469 25.9034C108.64 25.5057 108.867 25.196 109.151 24.9744C109.438 24.75 109.75 24.5937 110.088 24.5057C110.429 24.4148 110.765 24.3693 111.094 24.3693C111.304 24.3693 111.546 24.3949 111.819 24.446C112.094 24.4943 112.36 24.5952 112.615 24.7486C112.874 24.902 113.088 25.1335 113.259 25.4432C113.429 25.7528 113.515 26.1676 113.515 26.6875V31H112.509V30.1136H112.458C112.39 30.2557 112.276 30.4077 112.117 30.5696C111.958 30.7315 111.746 30.8693 111.482 30.983C111.218 31.0966 110.895 31.1534 110.515 31.1534ZM110.668 30.25C111.066 30.25 111.401 30.1719 111.674 30.0156C111.949 29.8594 112.157 29.6577 112.296 29.4105C112.438 29.1634 112.509 28.9034 112.509 28.6307V27.7102C112.466 27.7614 112.373 27.8082 112.228 27.8509C112.086 27.8906 111.921 27.9261 111.733 27.9574C111.549 27.9858 111.368 28.0114 111.192 28.0341C111.019 28.054 110.878 28.071 110.77 28.0852C110.509 28.1193 110.265 28.1747 110.037 28.2514C109.813 28.3253 109.631 28.4375 109.492 28.5881C109.355 28.7358 109.287 28.9375 109.287 29.1932C109.287 29.5426 109.417 29.8068 109.675 29.9858C109.936 30.1619 110.267 30.25 110.668 30.25ZM118.197 24.4545V25.3068H114.805V24.4545H118.197ZM115.793 22.8864H116.799V29.125C116.799 29.4091 116.84 29.6222 116.923 29.7642C117.008 29.9034 117.116 29.9972 117.246 30.0455C117.38 30.0909 117.521 30.1136 117.668 30.1136C117.779 30.1136 117.87 30.108 117.941 30.0966C118.012 30.0824 118.069 30.071 118.112 30.0625L118.316 30.9659C118.248 30.9915 118.153 31.017 118.031 31.0426C117.908 31.071 117.754 31.0852 117.566 31.0852C117.282 31.0852 117.004 31.0241 116.731 30.902C116.461 30.7798 116.237 30.5938 116.058 30.3438C115.881 30.0938 115.793 29.7784 115.793 29.3977V22.8864ZM122.384 31.1364C121.753 31.1364 121.209 30.9972 120.751 30.7188C120.297 30.4375 119.946 30.0455 119.699 29.5426C119.455 29.0369 119.332 28.4489 119.332 27.7784C119.332 27.108 119.455 26.517 119.699 26.0057C119.946 25.4915 120.29 25.0909 120.73 24.804C121.173 24.5142 121.69 24.3693 122.281 24.3693C122.622 24.3693 122.959 24.4261 123.291 24.5398C123.624 24.6534 123.926 24.8381 124.199 25.0938C124.472 25.3466 124.689 25.6818 124.851 26.0994C125.013 26.517 125.094 27.0312 125.094 27.642V28.0682H120.048V27.1989H124.071C124.071 26.8295 123.997 26.5 123.849 26.2102C123.705 25.9205 123.497 25.6918 123.227 25.5241C122.96 25.3565 122.645 25.2727 122.281 25.2727C121.881 25.2727 121.534 25.3722 121.241 25.571C120.952 25.767 120.729 26.0227 120.572 26.3381C120.416 26.6534 120.338 26.9915 120.338 27.3523V27.9318C120.338 28.4261 120.423 28.8452 120.594 29.1889C120.767 29.5298 121.007 29.7898 121.314 29.9688C121.621 30.1449 121.977 30.233 122.384 30.233C122.648 30.233 122.886 30.196 123.099 30.1222C123.315 30.0455 123.501 29.9318 123.658 29.7812C123.814 29.6278 123.935 29.4375 124.02 29.2102L124.991 29.483C124.889 29.8125 124.717 30.1023 124.476 30.3523C124.234 30.5994 123.936 30.7926 123.581 30.9318C123.226 31.0682 122.827 31.1364 122.384 31.1364ZM129.095 31.1364C128.55 31.1364 128.068 30.9986 127.651 30.723C127.233 30.4446 126.906 30.0526 126.67 29.5469C126.435 29.0384 126.317 28.4375 126.317 27.7443C126.317 27.0568 126.435 26.4602 126.67 25.9545C126.906 25.4489 127.234 25.0582 127.655 24.7827C128.075 24.5071 128.561 24.3693 129.112 24.3693C129.538 24.3693 129.875 24.4403 130.122 24.5824C130.372 24.7216 130.563 24.8807 130.693 25.0597C130.827 25.2358 130.93 25.3807 131.004 25.4943H131.089V22.2727H132.095V31H131.124V29.9943H131.004C130.93 30.1136 130.825 30.2642 130.689 30.446C130.553 30.625 130.358 30.7855 130.105 30.9276C129.852 31.0668 129.516 31.1364 129.095 31.1364ZM129.232 30.233C129.635 30.233 129.976 30.1278 130.254 29.9176C130.533 29.7045 130.744 29.4105 130.889 29.0355C131.034 28.6577 131.107 28.2216 131.107 27.7273C131.107 27.2386 131.036 26.8111 130.893 26.4446C130.751 26.0753 130.541 25.7884 130.263 25.5838C129.984 25.3764 129.641 25.2727 129.232 25.2727C128.805 25.2727 128.45 25.3821 128.166 25.6009C127.885 25.8168 127.673 26.1108 127.531 26.483C127.392 26.8523 127.322 27.267 127.322 27.7273C127.322 28.1932 127.393 28.6165 127.536 28.9972C127.68 29.375 127.893 29.6761 128.175 29.9006C128.459 30.1222 128.811 30.233 129.232 30.233ZM144.952 26.6364C144.952 27.5568 144.786 28.3523 144.453 29.0227C144.121 29.6932 143.665 30.2102 143.085 30.5739C142.506 30.9375 141.844 31.1193 141.099 31.1193C140.355 31.1193 139.693 30.9375 139.114 30.5739C138.534 30.2102 138.078 29.6932 137.746 29.0227C137.413 28.3523 137.247 27.5568 137.247 26.6364C137.247 25.7159 137.413 24.9205 137.746 24.25C138.078 23.5795 138.534 23.0625 139.114 22.6989C139.693 22.3352 140.355 22.1534 141.099 22.1534C141.844 22.1534 142.506 22.3352 143.085 22.6989C143.665 23.0625 144.121 23.5795 144.453 24.25C144.786 24.9205 144.952 25.7159 144.952 26.6364ZM143.929 26.6364C143.929 25.8807 143.803 25.2429 143.55 24.723C143.3 24.2031 142.96 23.8097 142.531 23.5426C142.105 23.2756 141.628 23.142 141.099 23.142C140.571 23.142 140.092 23.2756 139.663 23.5426C139.237 23.8097 138.898 24.2031 138.645 24.723C138.395 25.2429 138.27 25.8807 138.27 26.6364C138.27 27.392 138.395 28.0298 138.645 28.5497C138.898 29.0696 139.237 29.4631 139.663 29.7301C140.092 29.9972 140.571 30.1307 141.099 30.1307C141.628 30.1307 142.105 29.9972 142.531 29.7301C142.96 29.4631 143.3 29.0696 143.55 28.5497C143.803 28.0298 143.929 27.392 143.929 26.6364ZM146.729 31V22.2727H149.78C150.388 22.2727 150.889 22.3778 151.284 22.5881C151.679 22.7955 151.973 23.0753 152.166 23.4276C152.359 23.777 152.456 24.1648 152.456 24.5909C152.456 24.9659 152.389 25.2756 152.256 25.5199C152.125 25.7642 151.952 25.9574 151.736 26.0994C151.523 26.2415 151.291 26.3466 151.041 26.4148V26.5C151.308 26.517 151.577 26.6108 151.847 26.7812C152.116 26.9517 152.342 27.196 152.524 27.5142C152.706 27.8324 152.797 28.2216 152.797 28.6818C152.797 29.1193 152.697 29.5128 152.499 29.8622C152.3 30.2116 151.986 30.4886 151.557 30.6932C151.128 30.8977 150.57 31 149.882 31H146.729ZM147.786 30.0625H149.882C150.572 30.0625 151.063 29.929 151.352 29.6619C151.645 29.392 151.791 29.0653 151.791 28.6818C151.791 28.3864 151.716 28.1136 151.565 27.8636C151.415 27.6108 151.2 27.4091 150.922 27.2585C150.643 27.1051 150.314 27.0284 149.933 27.0284H147.786V30.0625ZM147.786 26.108H149.746C150.064 26.108 150.351 26.0455 150.607 25.9205C150.865 25.7955 151.07 25.6193 151.22 25.392C151.374 25.1648 151.45 24.8977 151.45 24.5909C151.45 24.2074 151.317 23.8821 151.05 23.6151C150.783 23.3452 150.359 23.2102 149.78 23.2102H147.786V26.108ZM159.306 24.4545C159.255 24.0227 159.048 23.6875 158.684 23.4489C158.32 23.2102 157.874 23.0909 157.346 23.0909C156.96 23.0909 156.621 23.1534 156.332 23.2784C156.045 23.4034 155.82 23.5753 155.658 23.794C155.499 24.0128 155.42 24.2614 155.42 24.5398C155.42 24.7727 155.475 24.973 155.586 25.1406C155.7 25.3054 155.844 25.4432 156.021 25.554C156.197 25.6619 156.381 25.7514 156.575 25.8224C156.768 25.8906 156.945 25.946 157.107 25.9886L157.994 26.2273C158.221 26.2869 158.474 26.3693 158.752 26.4744C159.033 26.5795 159.302 26.723 159.558 26.9048C159.816 27.0838 160.029 27.3139 160.197 27.5952C160.364 27.8764 160.448 28.2216 160.448 28.6307C160.448 29.1023 160.325 29.5284 160.077 29.9091C159.833 30.2898 159.475 30.5923 159.004 30.8168C158.535 31.0412 157.965 31.1534 157.295 31.1534C156.67 31.1534 156.129 31.0526 155.671 30.8509C155.217 30.6491 154.859 30.3679 154.597 30.0071C154.339 29.6463 154.192 29.2273 154.158 28.75H155.249C155.278 29.0795 155.388 29.3523 155.582 29.5682C155.778 29.7812 156.025 29.9403 156.323 30.0455C156.624 30.1477 156.948 30.1989 157.295 30.1989C157.698 30.1989 158.06 30.1335 158.381 30.0028C158.702 29.8693 158.957 29.6847 159.144 29.4489C159.332 29.2102 159.425 28.9318 159.425 28.6136C159.425 28.3239 159.344 28.0881 159.183 27.9062C159.021 27.7244 158.808 27.5767 158.543 27.4631C158.279 27.3494 157.994 27.25 157.687 27.1648L156.613 26.858C155.931 26.6619 155.391 26.3821 154.994 26.0185C154.596 25.6548 154.397 25.179 154.397 24.5909C154.397 24.1023 154.529 23.6761 154.793 23.3125C155.06 22.946 155.418 22.6619 155.867 22.4602C156.319 22.2557 156.823 22.1534 157.38 22.1534C157.942 22.1534 158.442 22.2543 158.88 22.456C159.317 22.6548 159.664 22.9276 159.92 23.2741C160.178 23.6207 160.315 24.0142 160.329 24.4545H159.306Z" fill="#525866"/>
<path d="M85.6122 42.7301C86.196 42.7344 86.7713 42.8409 87.3381 43.0497C87.9048 43.2585 88.4162 43.5994 88.8722 44.0724C89.3324 44.5455 89.6989 45.1847 89.9716 45.9901C90.2486 46.7912 90.3892 47.7884 90.3935 48.9815C90.3935 50.1278 90.2784 51.1484 90.0483 52.0433C89.8182 52.9339 89.4879 53.6861 89.0575 54.2997C88.6314 54.9134 88.1136 55.38 87.5043 55.6996C86.8949 56.0192 86.2088 56.179 85.446 56.179C84.6662 56.179 83.9737 56.0256 83.3686 55.7188C82.7635 55.4119 82.2713 54.9879 81.892 54.4467C81.5128 53.9013 81.2763 53.2749 81.1825 52.5675H83.1321C83.2599 53.13 83.5199 53.5859 83.9119 53.9354C84.3082 54.2805 84.8196 54.4531 85.446 54.4531C86.4048 54.4531 87.1527 54.0355 87.6896 53.2003C88.2266 52.3608 88.4972 51.1889 88.5014 49.6847H88.3991C88.1776 50.0511 87.9006 50.3665 87.5682 50.6307C87.2401 50.8949 86.8714 51.0994 86.4624 51.2443C86.0533 51.3892 85.6165 51.4616 85.152 51.4616C84.3977 51.4616 83.7116 51.2763 83.0938 50.9055C82.4759 50.5348 81.9837 50.0256 81.6172 49.3778C81.2507 48.7301 81.0675 47.9908 81.0675 47.1598C81.0675 46.3331 81.255 45.5831 81.63 44.9098C82.0092 44.2365 82.5376 43.7038 83.2152 43.3118C83.897 42.9155 84.696 42.7216 85.6122 42.7301ZM85.6186 44.392C85.12 44.392 84.6705 44.5156 84.2699 44.7628C83.8736 45.0057 83.5604 45.3359 83.3303 45.7536C83.1001 46.1669 82.9851 46.6271 82.9851 47.1342C82.9851 47.6413 83.0959 48.1016 83.3175 48.5149C83.5433 48.924 83.8501 49.25 84.2379 49.4929C84.63 49.7315 85.0774 49.8509 85.5803 49.8509C85.9553 49.8509 86.3047 49.7784 86.6286 49.6335C86.9524 49.4886 87.2358 49.2884 87.4787 49.0327C87.7216 48.7727 87.9112 48.4787 88.0476 48.1506C88.1839 47.8224 88.2521 47.4773 88.2521 47.1151C88.2521 46.6335 88.1371 46.1861 87.907 45.7727C87.6811 45.3594 87.37 45.027 86.9737 44.7756C86.5774 44.5199 86.1257 44.392 85.6186 44.392ZM96.7856 42.7301C97.3694 42.7344 97.9447 42.8409 98.5114 43.0497C99.0782 43.2585 99.5896 43.5994 100.046 44.0724C100.506 44.5455 100.872 45.1847 101.145 45.9901C101.422 46.7912 101.563 47.7884 101.567 48.9815C101.567 50.1278 101.452 51.1484 101.222 52.0433C100.992 52.9339 100.661 53.6861 100.231 54.2997C99.8048 54.9134 99.287 55.38 98.6776 55.6996C98.0682 56.0192 97.3822 56.179 96.6194 56.179C95.8396 56.179 95.1471 56.0256 94.542 55.7188C93.9369 55.4119 93.4447 54.9879 93.0654 54.4467C92.6861 53.9013 92.4496 53.2749 92.3559 52.5675H94.3055C94.4333 53.13 94.6932 53.5859 95.0853 53.9354C95.4816 54.2805 95.993 54.4531 96.6194 54.4531C97.5782 54.4531 98.3261 54.0355 98.863 53.2003C99.3999 52.3608 99.6705 51.1889 99.6748 49.6847H99.5725C99.3509 50.0511 99.0739 50.3665 98.7415 50.6307C98.4134 50.8949 98.0448 51.0994 97.6357 51.2443C97.2266 51.3892 96.7898 51.4616 96.3253 51.4616C95.5711 51.4616 94.885 51.2763 94.2671 50.9055C93.6492 50.5348 93.157 50.0256 92.7905 49.3778C92.4241 48.7301 92.2408 47.9908 92.2408 47.1598C92.2408 46.3331 92.4283 45.5831 92.8033 44.9098C93.1826 44.2365 93.711 43.7038 94.3886 43.3118C95.0704 42.9155 95.8694 42.7216 96.7856 42.7301ZM96.792 44.392C96.2934 44.392 95.8438 44.5156 95.4432 44.7628C95.0469 45.0057 94.7337 45.3359 94.5036 45.7536C94.2735 46.1669 94.1584 46.6271 94.1584 47.1342C94.1584 47.6413 94.2692 48.1016 94.4908 48.5149C94.7167 48.924 95.0235 49.25 95.4113 49.4929C95.8033 49.7315 96.2508 49.8509 96.7536 49.8509C97.1286 49.8509 97.478 49.7784 97.8019 49.6335C98.1258 49.4886 98.4092 49.2884 98.6521 49.0327C98.8949 48.7727 99.0846 48.4787 99.2209 48.1506C99.3573 47.8224 99.4255 47.4773 99.4255 47.1151C99.4255 46.6335 99.3104 46.1861 99.0803 45.7727C98.8545 45.3594 98.5434 45.027 98.1471 44.7756C97.7508 44.5199 97.2991 44.392 96.792 44.392ZM105.643 54.2102L105.548 54.907C105.484 55.4183 105.375 55.951 105.222 56.505C105.072 57.0632 104.917 57.581 104.755 58.0582C104.597 58.5355 104.467 58.9148 104.365 59.196H103.01C103.065 58.9318 103.142 58.5739 103.24 58.1222C103.338 57.6747 103.434 57.174 103.528 56.62C103.621 56.0661 103.692 55.5014 103.739 54.9261L103.803 54.2102H105.643ZM112.13 56.2173C111.12 56.2131 110.257 55.9467 109.541 55.4183C108.825 54.8899 108.278 54.1207 107.898 53.1108C107.519 52.1009 107.329 50.8842 107.329 49.4609C107.329 48.0419 107.519 46.8295 107.898 45.8239C108.282 44.8182 108.832 44.0511 109.547 43.5227C110.268 42.9943 111.128 42.7301 112.13 42.7301C113.131 42.7301 113.99 42.9964 114.706 43.5291C115.422 44.0575 115.969 44.8246 116.349 45.8303C116.732 46.8317 116.924 48.0419 116.924 49.4609C116.924 50.8885 116.734 52.1072 116.355 53.1172C115.976 54.1229 115.428 54.892 114.712 55.4247C113.996 55.9531 113.135 56.2173 112.13 56.2173ZM112.13 54.5107C113.016 54.5107 113.709 54.0781 114.207 53.2131C114.71 52.348 114.961 51.0973 114.961 49.4609C114.961 48.3743 114.846 47.456 114.616 46.706C114.39 45.9517 114.064 45.3807 113.638 44.9929C113.216 44.6009 112.714 44.4048 112.13 44.4048C111.248 44.4048 110.555 44.8395 110.052 45.7088C109.55 46.5781 109.296 47.8288 109.292 49.4609C109.292 50.5518 109.405 51.4744 109.631 52.2287C109.861 52.9787 110.187 53.5476 110.609 53.9354C111.03 54.3189 111.537 54.5107 112.13 54.5107ZM123.479 56.2173C122.469 56.2131 121.606 55.9467 120.89 55.4183C120.174 54.8899 119.627 54.1207 119.247 53.1108C118.868 52.1009 118.679 50.8842 118.679 49.4609C118.679 48.0419 118.868 46.8295 119.247 45.8239C119.631 44.8182 120.181 44.0511 120.897 43.5227C121.617 42.9943 122.478 42.7301 123.479 42.7301C124.48 42.7301 125.339 42.9964 126.055 43.5291C126.771 44.0575 127.318 44.8246 127.698 45.8303C128.081 46.8317 128.273 48.0419 128.273 49.4609C128.273 50.8885 128.083 52.1072 127.704 53.1172C127.325 54.1229 126.777 54.892 126.061 55.4247C125.345 55.9531 124.485 56.2173 123.479 56.2173ZM123.479 54.5107C124.365 54.5107 125.058 54.0781 125.556 53.2131C126.059 52.348 126.311 51.0973 126.311 49.4609C126.311 48.3743 126.196 47.456 125.965 46.706C125.74 45.9517 125.414 45.3807 124.987 44.9929C124.566 44.6009 124.063 44.4048 123.479 44.4048C122.597 44.4048 121.904 44.8395 121.402 45.7088C120.899 46.5781 120.645 47.8288 120.641 49.4609C120.641 50.5518 120.754 51.4744 120.98 52.2287C121.21 52.9787 121.536 53.5476 121.958 53.9354C122.38 54.3189 122.887 54.5107 123.479 54.5107ZM134.828 56.2173C133.818 56.2131 132.955 55.9467 132.239 55.4183C131.523 54.8899 130.976 54.1207 130.597 53.1108C130.217 52.1009 130.028 50.8842 130.028 49.4609C130.028 48.0419 130.217 46.8295 130.597 45.8239C130.98 44.8182 131.53 44.0511 132.246 43.5227C132.966 42.9943 133.827 42.7301 134.828 42.7301C135.83 42.7301 136.688 42.9964 137.404 43.5291C138.12 44.0575 138.668 44.8246 139.047 45.8303C139.43 46.8317 139.622 48.0419 139.622 49.4609C139.622 50.8885 139.432 52.1072 139.053 53.1172C138.674 54.1229 138.126 54.892 137.41 55.4247C136.695 55.9531 135.834 56.2173 134.828 56.2173ZM134.828 54.5107C135.714 54.5107 136.407 54.0781 136.906 53.2131C137.408 52.348 137.66 51.0973 137.66 49.4609C137.66 48.3743 137.545 47.456 137.315 46.706C137.089 45.9517 136.763 45.3807 136.337 44.9929C135.915 44.6009 135.412 44.4048 134.828 44.4048C133.946 44.4048 133.254 44.8395 132.751 45.7088C132.248 46.5781 131.994 47.8288 131.99 49.4609C131.99 50.5518 132.103 51.4744 132.329 52.2287C132.559 52.9787 132.885 53.5476 133.307 53.9354C133.729 54.3189 134.236 54.5107 134.828 54.5107Z" fill="#0E121B"/>
</svg>
