<svg width="80" height="144" viewBox="0 0 80 144" fill="none" xmlns="http://www.w3.org/2000/svg">
<rect x="0.5" y="0.5" width="79" height="143" rx="4.5" fill="white"/>
<rect x="0.5" y="0.5" width="79" height="143" rx="4.5" stroke="#9747FF" stroke-dasharray="10 5"/>
<circle cx="39.9998" cy="42" r="17.6327" fill="#1DAF9C" fill-opacity="0.1"/>
<path d="M50.082 38.574C50.0801 38.3621 49.9625 38.1046 49.8156 37.9482C49.177 37.2629 48.4992 36.6153 47.8527 35.9379C47.6529 35.73 47.4413 35.6567 47.1612 35.6567C42.6379 35.6626 38.1166 35.6606 33.5933 35.6626C33.4738 35.6626 33.3524 35.6725 33.2231 35.6805V43.1391C33.3739 43.1391 33.4954 43.1391 33.6188 43.1391C35.1644 43.1391 36.71 43.149 38.2557 43.1312C38.6044 43.1272 38.8492 43.2401 39.0922 43.4877C40.9395 45.3712 42.7946 47.2468 44.6596 49.1144C44.7791 49.2352 44.9848 49.3243 45.1532 49.3303C45.8448 49.354 46.5402 49.356 47.2317 49.3303C47.4237 49.3224 47.6568 49.2332 47.7939 49.1005C48.4933 48.4272 49.177 47.7379 49.843 47.0309C49.9821 46.8823 50.084 46.6328 50.0859 46.4288C50.1036 44.4998 50.1055 40.503 50.0859 38.574H50.082ZM45.2002 46.2743C43.0591 46.2644 41.3195 44.4958 41.3195 42.3291C41.3195 40.1624 43.061 38.3958 45.2022 38.3859C47.3492 38.3779 49.1064 40.1624 49.1006 42.3489C49.0947 44.5057 47.3297 46.2842 45.2002 46.2743Z" fill="#1DAF9C"/>
<path d="M31.5912 34.1C30.9918 34.1 30.9076 34.1891 30.9076 34.7952C30.9076 39.2474 30.9076 45.7653 30.9076 50.2176C30.9076 50.3324 30.8801 50.4651 30.9291 50.5562C30.9977 50.685 31.1172 50.8672 31.2288 50.8771C31.6285 50.9167 32.032 50.8929 32.4395 50.8929V34.1C32.1319 34.1 31.8616 34.1 31.5912 34.1Z" fill="#1DAF9C"/>
<path d="M33.2309 49.3243H34.7315V43.9591H33.2309V49.3243Z" fill="#1DAF9C"/>
<path d="M35.5425 49.3184H37.0137V43.9472H35.5425V49.3184Z" fill="#1DAF9C"/>
<path d="M38.7415 44.2205C38.4594 43.971 38.2067 43.8838 37.8462 43.9611V49.3184H39.3468C39.3468 49.1738 39.3468 49.0491 39.3468 48.9263C39.3468 47.8588 39.3057 46.7913 39.3625 45.7277C39.3958 45.09 39.2156 44.6384 38.7435 44.2225L38.7415 44.2205Z" fill="#1DAF9C"/>
<path d="M40.1304 49.3204H43.6096C42.4557 48.1519 41.2823 46.9616 40.1304 45.7931V49.3204Z" fill="#1DAF9C"/>
<path d="M44.2991 34.8467C44.3716 34.2089 44.2795 34.1 43.6899 34.1C41.8191 34.1 39.9463 34.1 38.0754 34.1C37.4956 34.1 37.3937 34.2188 37.4564 34.8467H44.2991Z" fill="#1DAF9C"/>
<path d="M36.6434 34.8585C36.712 34.2248 36.6043 34.1 36.0244 34.1C35.6718 34.1 35.3211 34.1 34.9685 34.1C34.42 34.1 34.2731 34.302 34.42 34.8585H36.6434Z" fill="#1DAF9C"/>
<path d="M46.7087 39.6316C46.3639 39.5227 46.0211 39.3959 45.6665 39.3147C45.5822 39.2949 45.4059 39.4118 45.3726 39.5029C45.1709 40.0337 45.214 40.5545 45.4804 41.0279C45.8957 40.5565 46.2816 40.1149 46.7087 39.6296V39.6316Z" fill="#1DAF9C"/>
<path d="M45.9329 43.4838C45.9642 44.07 45.9976 44.6641 46.0328 45.3118C46.4011 45.1157 46.789 44.9117 47.1651 44.7117C46.9183 43.9809 46.4442 43.5392 45.9329 43.4818V43.4838Z" fill="#1DAF9C"/>
<path d="M43.7134 45.0286C44.0503 45.1375 44.3834 45.2662 44.7262 45.3415C44.8202 45.3613 45.0141 45.2405 45.0514 45.1415C45.2492 44.6206 45.2042 44.1057 44.9358 43.6283C44.5283 44.0938 44.1404 44.5394 43.7114 45.0266L43.7134 45.0286Z" fill="#1DAF9C"/>
<path d="M44.495 41.226C44.4578 40.6021 44.4225 40.0079 44.3853 39.3524C44.0229 39.5405 43.637 39.7425 43.2315 39.9545C43.4979 40.6397 43.9054 41.0378 44.495 41.226Z" fill="#1DAF9C"/>
<path d="M47.3786 40.41C46.9908 40.5189 46.311 41.1606 46.3423 41.6042C46.9457 41.5626 47.5236 41.523 48.1642 41.4795C47.982 41.1408 47.8312 40.8318 47.6509 40.5387C47.6039 40.4634 47.455 40.3882 47.3786 40.41Z" fill="#1DAF9C"/>
<path d="M42.3421 42.143C42.8867 42.339 43.4235 42.345 43.923 42.0499C43.4646 41.6399 43.0238 41.2477 42.538 40.812C42.4361 41.1626 42.3186 41.5329 42.2265 41.9092C42.2108 41.9766 42.2814 42.1192 42.3441 42.141L42.3421 42.143Z" fill="#1DAF9C"/>
<path d="M47.9957 42.4955C47.4844 42.3073 46.977 42.343 46.4932 42.6004C46.9614 43.0203 47.4021 43.4164 47.8801 43.8462C47.9781 43.5214 48.1015 43.1748 48.1759 42.8203C48.1955 42.7252 48.0858 42.5291 47.9957 42.4955Z" fill="#1DAF9C"/>
<path d="M42.2559 43.1748C42.4381 43.5115 42.6046 43.8403 42.7946 44.1552C42.8318 44.2185 42.9709 44.2661 43.0473 44.2482C43.4959 44.1492 44.0209 43.5036 44.068 43.0579C43.4764 43.0956 42.9024 43.1332 42.2579 43.1728L42.2559 43.1748Z" fill="#1DAF9C"/>
<path d="M45.2218 41.9092C45.0514 41.9231 44.8927 42.1033 44.7281 42.2103C44.7242 42.2717 44.7203 42.3311 44.7144 42.3925C44.8751 42.5172 45.0239 42.7173 45.2022 42.7509C45.4275 42.7945 45.6175 42.6282 45.6312 42.3608C45.6469 42.0756 45.4725 41.8894 45.2198 41.9112L45.2218 41.9092Z" fill="#1DAF9C"/>
<mask id="path-4-inside-1_3356_2552" fill="white">
<path d="M64 42C64 55.2548 53.2548 66 40 66C26.7452 66 16 55.2548 16 42C16 28.7452 26.7452 18 40 18C53.2548 18 64 28.7452 64 42ZM19.36 42C19.36 53.3992 28.6008 62.64 40 62.64C51.3992 62.64 60.64 53.3992 60.64 42C60.64 30.6008 51.3992 21.36 40 21.36C28.6008 21.36 19.36 30.6008 19.36 42Z"/>
</mask>
<path d="M64 42C64 55.2548 53.2548 66 40 66C26.7452 66 16 55.2548 16 42C16 28.7452 26.7452 18 40 18C53.2548 18 64 28.7452 64 42ZM19.36 42C19.36 53.3992 28.6008 62.64 40 62.64C51.3992 62.64 60.64 53.3992 60.64 42C60.64 30.6008 51.3992 21.36 40 21.36C28.6008 21.36 19.36 30.6008 19.36 42Z" stroke="#1DAF9C" stroke-opacity="0.1" stroke-width="4.89796" mask="url(#path-4-inside-1_3356_2552)"/>
<circle cx="39.9998" cy="102" r="17.6327" fill="#1DAF9C" fill-opacity="0.1"/>
<path d="M50.082 98.574C50.0801 98.3621 49.9625 98.1046 49.8156 97.9482C49.177 97.2629 48.4992 96.6153 47.8527 95.9379C47.6529 95.73 47.4413 95.6567 47.1612 95.6567C42.6379 95.6626 38.1166 95.6607 33.5933 95.6626C33.4738 95.6626 33.3524 95.6725 33.2231 95.6805V103.139C33.3739 103.139 33.4954 103.139 33.6188 103.139C35.1644 103.139 36.71 103.149 38.2557 103.131C38.6044 103.127 38.8492 103.24 39.0922 103.488C40.9395 105.371 42.7946 107.247 44.6596 109.114C44.7791 109.235 44.9848 109.324 45.1532 109.33C45.8448 109.354 46.5402 109.356 47.2317 109.33C47.4237 109.322 47.6568 109.233 47.7939 109.101C48.4933 108.427 49.177 107.738 49.843 107.031C49.9821 106.882 50.084 106.633 50.0859 106.429C50.1036 104.5 50.1055 100.503 50.0859 98.574H50.082ZM45.2002 106.274C43.0591 106.264 41.3195 104.496 41.3195 102.329C41.3195 100.162 43.061 98.3958 45.2022 98.3859C47.3492 98.3779 49.1064 100.162 49.1006 102.349C49.0947 104.506 47.3297 106.284 45.2002 106.274Z" fill="#1DAF9C"/>
<path d="M31.5912 94.1C30.9918 94.1 30.9076 94.1891 30.9076 94.7952C30.9076 99.2474 30.9076 105.765 30.9076 110.218C30.9076 110.332 30.8801 110.465 30.9291 110.556C30.9977 110.685 31.1172 110.867 31.2288 110.877C31.6285 110.917 32.032 110.893 32.4395 110.893V94.1C32.1319 94.1 31.8616 94.1 31.5912 94.1Z" fill="#1DAF9C"/>
<path d="M33.2309 109.324H34.7315V103.959H33.2309V109.324Z" fill="#1DAF9C"/>
<path d="M35.5425 109.318H37.0137V103.947H35.5425V109.318Z" fill="#1DAF9C"/>
<path d="M38.7415 104.221C38.4594 103.971 38.2067 103.884 37.8462 103.961V109.318H39.3468C39.3468 109.174 39.3468 109.049 39.3468 108.926C39.3468 107.859 39.3057 106.791 39.3625 105.728C39.3958 105.09 39.2156 104.638 38.7435 104.223L38.7415 104.221Z" fill="#1DAF9C"/>
<path d="M40.1304 109.32H43.6096C42.4557 108.152 41.2823 106.962 40.1304 105.793V109.32Z" fill="#1DAF9C"/>
<path d="M44.2991 94.8467C44.3716 94.2089 44.2795 94.1 43.6899 94.1C41.8191 94.1 39.9463 94.1 38.0754 94.1C37.4956 94.1 37.3937 94.2188 37.4564 94.8467H44.2991Z" fill="#1DAF9C"/>
<path d="M36.6434 94.8585C36.712 94.2248 36.6043 94.1 36.0244 94.1C35.6718 94.1 35.3211 94.1 34.9685 94.1C34.42 94.1 34.2731 94.302 34.42 94.8585H36.6434Z" fill="#1DAF9C"/>
<path d="M46.7087 99.6316C46.3639 99.5227 46.0211 99.3959 45.6665 99.3147C45.5822 99.2949 45.4059 99.4118 45.3726 99.5029C45.1709 100.034 45.214 100.555 45.4804 101.028C45.8957 100.557 46.2816 100.115 46.7087 99.6296V99.6316Z" fill="#1DAF9C"/>
<path d="M45.9329 103.484C45.9642 104.07 45.9976 104.664 46.0328 105.312C46.4011 105.116 46.789 104.912 47.1651 104.712C46.9183 103.981 46.4442 103.539 45.9329 103.482V103.484Z" fill="#1DAF9C"/>
<path d="M43.7134 105.029C44.0503 105.138 44.3834 105.266 44.7262 105.342C44.8202 105.361 45.0141 105.241 45.0514 105.141C45.2492 104.621 45.2042 104.106 44.9358 103.628C44.5283 104.094 44.1404 104.539 43.7114 105.027L43.7134 105.029Z" fill="#1DAF9C"/>
<path d="M44.495 101.226C44.4578 100.602 44.4225 100.008 44.3853 99.3524C44.0229 99.5405 43.637 99.7426 43.2315 99.9545C43.4979 100.64 43.9054 101.038 44.495 101.226Z" fill="#1DAF9C"/>
<path d="M47.3786 100.41C46.9908 100.519 46.311 101.161 46.3423 101.604C46.9457 101.563 47.5236 101.523 48.1642 101.479C47.982 101.141 47.8312 100.832 47.6509 100.539C47.6039 100.463 47.455 100.388 47.3786 100.41Z" fill="#1DAF9C"/>
<path d="M42.3421 102.143C42.8867 102.339 43.4235 102.345 43.923 102.05C43.4646 101.64 43.0238 101.248 42.538 100.812C42.4361 101.163 42.3186 101.533 42.2265 101.909C42.2108 101.977 42.2814 102.119 42.3441 102.141L42.3421 102.143Z" fill="#1DAF9C"/>
<path d="M47.9957 102.495C47.4844 102.307 46.977 102.343 46.4932 102.6C46.9614 103.02 47.4021 103.416 47.8801 103.846C47.9781 103.521 48.1015 103.175 48.1759 102.82C48.1955 102.725 48.0858 102.529 47.9957 102.495Z" fill="#1DAF9C"/>
<path d="M42.2559 103.175C42.4381 103.511 42.6046 103.84 42.7946 104.155C42.8318 104.219 42.9709 104.266 43.0473 104.248C43.4959 104.149 44.0209 103.504 44.068 103.058C43.4764 103.096 42.9024 103.133 42.2579 103.173L42.2559 103.175Z" fill="#1DAF9C"/>
<path d="M45.2218 101.909C45.0514 101.923 44.8927 102.103 44.7281 102.21C44.7242 102.272 44.7203 102.331 44.7144 102.392C44.8751 102.517 45.0239 102.717 45.2022 102.751C45.4275 102.795 45.6175 102.628 45.6312 102.361C45.6469 102.076 45.4725 101.889 45.2198 101.911L45.2218 101.909Z" fill="#1DAF9C"/>
<mask id="path-7-inside-2_3356_2552" fill="white">
<path d="M64 102C64 115.255 53.2548 126 40 126C26.7452 126 16 115.255 16 102C16 88.7452 26.7452 78 40 78C53.2548 78 64 88.7452 64 102ZM19.36 102C19.36 113.399 28.6008 122.64 40 122.64C51.3992 122.64 60.64 113.399 60.64 102C60.64 90.6008 51.3992 81.36 40 81.36C28.6008 81.36 19.36 90.6008 19.36 102Z"/>
</mask>
<path d="M64 102C64 115.255 53.2548 126 40 126C26.7452 126 16 115.255 16 102C16 88.7452 26.7452 78 40 78C53.2548 78 64 88.7452 64 102ZM19.36 102C19.36 113.399 28.6008 122.64 40 122.64C51.3992 122.64 60.64 113.399 60.64 102C60.64 90.6008 51.3992 81.36 40 81.36C28.6008 81.36 19.36 90.6008 19.36 102Z" stroke="#1DAF9C" stroke-opacity="0.1" stroke-width="4.89796" mask="url(#path-7-inside-2_3356_2552)"/>
<path d="M40 79.68C40 78.7522 39.2468 77.9939 38.3212 78.0587C32.5695 78.4618 27.133 80.9259 23.0294 85.0294C18.5286 89.5303 16 95.6348 16 102C16 108.365 18.5286 114.47 23.0294 118.971C27.133 123.074 32.5695 125.538 38.3212 125.941C39.2468 126.006 40 125.248 40 124.32C40 123.392 39.2465 122.647 38.3217 122.572C33.4621 122.175 28.8785 120.068 25.4053 116.595C21.5346 112.724 19.36 107.474 19.36 102C19.36 96.5259 21.5346 91.2761 25.4053 87.4053C28.8785 83.9321 33.4621 81.8246 38.3217 81.4283C39.2465 81.3529 40 80.6078 40 79.68Z" fill="#1DAF9C"/>
</svg>
