<svg width="299" height="304" viewBox="0 0 299 304" fill="none" xmlns="http://www.w3.org/2000/svg">
<rect x="0.5" y="0.5" width="298" height="303" rx="4.5" fill="white"/>
<rect x="0.5" y="0.5" width="298" height="303" rx="4.5" stroke="#9747FF" stroke-dasharray="10 5"/>
<path d="M24 16.5H275.2C279.342 16.5001 282.7 19.8579 282.7 24V88C282.7 92.1421 279.342 95.4999 275.2 95.5H24C19.8579 95.5 16.5 92.1421 16.5 88V24C16.5 19.8579 19.8579 16.5 24 16.5Z" fill="white"/>
<path d="M24 16.5H275.2C279.342 16.5001 282.7 19.8579 282.7 24V88C282.7 92.1421 279.342 95.4999 275.2 95.5H24C19.8579 95.5 16.5 92.1421 16.5 88V24C16.5 19.8579 19.8579 16.5 24 16.5Z" stroke="#E1E4EA"/>
<rect x="32" y="32" width="48" height="48" rx="24" fill="#E4FBF8"/>
<path d="M56.8998 50.3975C57.6085 50.06 58.0998 49.3363 58.0998 48.5C58.0998 47.3413 57.1585 46.4 55.9998 46.4C54.841 46.4 53.8998 47.3413 53.8998 48.5C53.8998 49.3363 54.391 50.06 55.0998 50.3975V54.1025C54.9948 54.1513 54.8935 54.2113 54.7998 54.2788L51.796 52.5613C51.856 51.7813 51.4735 51.0013 50.7498 50.5813C49.7448 50 48.4623 50.345 47.881 51.35C47.2998 52.355 47.6448 53.6375 48.6498 54.2188C48.6985 54.2488 48.7473 54.275 48.7998 54.2975V57.7025C48.751 57.725 48.6985 57.7513 48.6498 57.7813C47.6448 58.3625 47.2998 59.645 47.881 60.65C48.4623 61.655 49.7448 62 50.7498 61.4188C51.4735 61.0025 51.8523 60.2188 51.7923 59.4388L53.686 58.355C53.2548 57.935 52.9398 57.395 52.7935 56.7913L50.8998 57.8788C50.8023 57.8113 50.7048 57.755 50.5998 57.7025V54.2975C50.7048 54.2488 50.806 54.1888 50.8998 54.1213L53.9035 55.8388C53.8998 55.8913 53.896 55.9438 53.896 56C53.896 56.8363 54.3873 57.56 55.096 57.8975V61.6025C54.3873 61.94 53.896 62.6638 53.896 63.5C53.896 64.6588 54.8373 65.6 55.996 65.6C57.1548 65.6 58.096 64.6588 58.096 63.5C58.096 62.6638 57.6048 61.94 56.896 61.6025V57.8975C57.001 57.8488 57.1023 57.7888 57.196 57.7213L60.1998 59.4388C60.1398 60.2188 60.5223 60.9988 61.2423 61.4188C62.2473 62 63.5298 61.655 64.111 60.65C64.6923 59.645 64.3473 58.3625 63.3423 57.7813C63.2935 57.7513 63.241 57.725 63.1923 57.7025V54.2975C63.2448 54.275 63.2935 54.2488 63.3423 54.2188C64.3473 53.6375 64.6923 52.355 64.111 51.35C63.5298 50.345 62.2548 50 61.2498 50.5813C60.526 50.9975 60.1473 51.7813 60.2073 52.5613L58.3098 53.645C58.741 54.065 59.056 54.605 59.2023 55.2088L61.0998 54.1213C61.1973 54.1888 61.2948 54.245 61.3998 54.2975V57.7025C61.2948 57.7513 61.1935 57.8113 61.0998 57.875L58.096 56.1575C58.0998 56.105 58.1035 56.0525 58.1035 55.9963C58.1035 55.16 57.6123 54.4363 56.9035 54.0988V50.3938L56.8998 50.3975Z" fill="#1DAF9C"/>
<path d="M92.6761 38.9119V37.8182H100.312V38.9119H97.1108V48H95.8778V38.9119H92.6761ZM101.972 48V40.3636H103.146V48H101.972ZM102.569 39.0909C102.34 39.0909 102.143 39.013 101.977 38.8572C101.815 38.7015 101.734 38.5142 101.734 38.2955C101.734 38.0767 101.815 37.8894 101.977 37.7337C102.143 37.5779 102.34 37.5 102.569 37.5C102.798 37.5 102.993 37.5779 103.156 37.7337C103.321 37.8894 103.404 38.0767 103.404 38.2955C103.404 38.5142 103.321 38.7015 103.156 38.8572C102.993 39.013 102.798 39.0909 102.569 39.0909ZM108.532 40.3636V41.358H104.574V40.3636H108.532ZM105.728 38.5341H106.901V45.8125C106.901 46.1439 106.949 46.3925 107.045 46.5582C107.144 46.7206 107.27 46.83 107.423 46.8864C107.579 46.9394 107.743 46.9659 107.915 46.9659C108.044 46.9659 108.15 46.9593 108.233 46.946C108.316 46.9295 108.382 46.9162 108.432 46.9062L108.671 47.9602C108.591 47.9901 108.48 48.0199 108.338 48.0497C108.195 48.0829 108.015 48.0994 107.796 48.0994C107.464 48.0994 107.14 48.0282 106.821 47.8857C106.506 47.7431 106.245 47.526 106.036 47.2344C105.83 46.9427 105.728 46.5748 105.728 46.1307V38.5341ZM111.55 37.8182V48H110.377V37.8182H111.55ZM116.817 48.1591C116.081 48.1591 115.446 47.9967 114.912 47.6719C114.382 47.3438 113.973 46.8864 113.684 46.2997C113.399 45.7098 113.257 45.0237 113.257 44.2415C113.257 43.4593 113.399 42.7699 113.684 42.1733C113.973 41.5734 114.374 41.1061 114.888 40.7713C115.405 40.4332 116.008 40.2642 116.697 40.2642C117.095 40.2642 117.488 40.3305 117.875 40.4631C118.263 40.5956 118.616 40.8111 118.934 41.1094C119.253 41.4044 119.506 41.7955 119.695 42.2827C119.884 42.7699 119.978 43.3698 119.978 44.0824V44.5795H114.092V43.5653H118.785C118.785 43.1345 118.699 42.75 118.527 42.4119C118.358 42.0739 118.116 41.8071 117.801 41.6115C117.489 41.416 117.121 41.3182 116.697 41.3182C116.23 41.3182 115.826 41.4342 115.484 41.6662C115.146 41.8949 114.886 42.1932 114.704 42.5611C114.521 42.929 114.43 43.3234 114.43 43.7443V44.4205C114.43 44.9972 114.53 45.486 114.728 45.8871C114.931 46.2848 115.211 46.5881 115.569 46.7969C115.927 47.0024 116.343 47.1051 116.817 47.1051C117.125 47.1051 117.403 47.062 117.652 46.9759C117.904 46.8864 118.121 46.7538 118.303 46.5781C118.485 46.3991 118.626 46.1771 118.726 45.9119L119.859 46.2301C119.74 46.6146 119.539 46.9527 119.258 47.2443C118.976 47.5327 118.628 47.758 118.214 47.9205C117.799 48.0795 117.334 48.1591 116.817 48.1591Z" fill="#525866"/>
<path d="M94.5824 60.9091L98.2259 71.571H98.3729L102.016 60.9091H104.151L99.4403 74H97.1584L92.4474 60.9091H94.5824ZM107.509 74.2173C106.887 74.2173 106.324 74.1023 105.821 73.8722C105.318 73.6378 104.92 73.299 104.626 72.8558C104.336 72.4126 104.191 71.8693 104.191 71.2259C104.191 70.6719 104.298 70.2159 104.511 69.858C104.724 69.5 105.012 69.2166 105.374 69.0078C105.736 68.799 106.141 68.6413 106.588 68.5348C107.036 68.4283 107.492 68.3473 107.956 68.2919C108.544 68.2237 109.022 68.1683 109.388 68.1257C109.755 68.0788 110.021 68.0043 110.187 67.902C110.353 67.7997 110.436 67.6335 110.436 67.4034V67.3587C110.436 66.8004 110.279 66.3679 109.963 66.0611C109.652 65.7543 109.188 65.6009 108.57 65.6009C107.926 65.6009 107.419 65.7436 107.049 66.0291C106.682 66.3104 106.429 66.6236 106.288 66.9688L104.492 66.5597C104.705 65.9631 105.016 65.4815 105.425 65.1151C105.838 64.7443 106.313 64.4759 106.85 64.3097C107.387 64.1392 107.952 64.054 108.544 64.054C108.936 64.054 109.352 64.1009 109.791 64.1946C110.234 64.2841 110.647 64.4503 111.031 64.6932C111.419 64.9361 111.736 65.2834 111.983 65.7351C112.23 66.1825 112.354 66.7642 112.354 67.4801V74H110.487V72.6577H110.411C110.287 72.9048 110.102 73.1477 109.855 73.3864C109.607 73.625 109.29 73.8232 108.902 73.9808C108.514 74.1385 108.05 74.2173 107.509 74.2173ZM107.924 72.6832C108.453 72.6832 108.904 72.5788 109.279 72.37C109.659 72.1612 109.946 71.8885 110.142 71.5518C110.343 71.2109 110.443 70.8466 110.443 70.4588V69.1932C110.375 69.2614 110.242 69.3253 110.046 69.3849C109.855 69.4403 109.635 69.4893 109.388 69.532C109.141 69.5703 108.9 69.6065 108.666 69.6406C108.431 69.6705 108.235 69.696 108.078 69.7173C107.707 69.7642 107.368 69.843 107.061 69.9538C106.759 70.0646 106.516 70.2244 106.333 70.4332C106.154 70.6378 106.064 70.9105 106.064 71.2514C106.064 71.7244 106.239 72.0824 106.588 72.3253C106.938 72.5639 107.383 72.6832 107.924 72.6832ZM116.541 60.9091V74H114.63V60.9091H116.541ZM125.061 69.9283V64.1818H126.979V74H125.1V72.2997H124.998C124.772 72.8239 124.409 73.2607 123.911 73.6101C123.417 73.9553 122.801 74.1278 122.064 74.1278C121.433 74.1278 120.875 73.9893 120.389 73.7124C119.907 73.4311 119.528 73.0156 119.251 72.4659C118.978 71.9162 118.842 71.2365 118.842 70.4268V64.1818H120.753V70.1967C120.753 70.8658 120.939 71.3984 121.309 71.7947C121.68 72.1911 122.162 72.3892 122.754 72.3892C123.112 72.3892 123.468 72.2997 123.821 72.1207C124.179 71.9418 124.476 71.6712 124.71 71.3089C124.949 70.9467 125.066 70.4865 125.061 69.9283ZM133.509 74.1982C132.541 74.1982 131.708 73.9915 131.009 73.5781C130.315 73.1605 129.778 72.5746 129.399 71.8203C129.024 71.0618 128.836 70.1733 128.836 69.1548C128.836 68.1491 129.024 67.2628 129.399 66.4957C129.778 65.7287 130.306 65.13 130.984 64.6996C131.666 64.2692 132.462 64.054 133.374 64.054C133.928 64.054 134.465 64.1456 134.985 64.3288C135.505 64.5121 135.972 64.7997 136.385 65.1918C136.798 65.5838 137.124 66.093 137.363 66.7195C137.602 67.3416 137.721 68.098 137.721 68.9886V69.6662H129.916V68.2344H135.848C135.848 67.7315 135.746 67.2862 135.541 66.8984C135.337 66.5064 135.049 66.1974 134.678 65.9716C134.312 65.7457 133.881 65.6328 133.387 65.6328C132.85 65.6328 132.381 65.7649 131.981 66.0291C131.585 66.2891 131.278 66.63 131.06 67.0518C130.847 67.4695 130.741 67.9233 130.741 68.4134V69.532C130.741 70.1882 130.856 70.7464 131.086 71.2067C131.32 71.6669 131.646 72.0185 132.064 72.2614C132.482 72.5 132.97 72.6193 133.528 72.6193C133.89 72.6193 134.22 72.5682 134.519 72.4659C134.817 72.3594 135.075 72.2017 135.292 71.9929C135.509 71.7841 135.676 71.5263 135.791 71.2195L137.6 71.5455C137.455 72.0781 137.195 72.5447 136.82 72.9453C136.449 73.3416 135.982 73.6506 135.42 73.8722C134.862 74.0895 134.225 74.1982 133.509 74.1982Z" fill="#0E101B"/>
<path d="M24 112.5H275.2C279.342 112.5 282.7 115.858 282.7 120V184C282.7 188.142 279.342 191.5 275.2 191.5H24C19.8579 191.5 16.5 188.142 16.5 184V120C16.5 115.858 19.8579 112.5 24 112.5Z" fill="white"/>
<path d="M24 112.5H275.2C279.342 112.5 282.7 115.858 282.7 120V184C282.7 188.142 279.342 191.5 275.2 191.5H24C19.8579 191.5 16.5 188.142 16.5 184V120C16.5 115.858 19.8579 112.5 24 112.5Z" stroke="#E1E4EA"/>
<rect x="32" y="128" width="48" height="48" rx="24" fill="#E4FBF8"/>
<path d="M56.8998 146.398C57.6085 146.06 58.0998 145.336 58.0998 144.5C58.0998 143.341 57.1585 142.4 55.9998 142.4C54.841 142.4 53.8998 143.341 53.8998 144.5C53.8998 145.336 54.391 146.06 55.0998 146.398V150.103C54.9948 150.151 54.8935 150.211 54.7998 150.279L51.796 148.561C51.856 147.781 51.4735 147.001 50.7498 146.581C49.7448 146 48.4623 146.345 47.881 147.35C47.2998 148.355 47.6448 149.638 48.6498 150.219C48.6985 150.249 48.7473 150.275 48.7998 150.298V153.703C48.751 153.725 48.6985 153.751 48.6498 153.781C47.6448 154.363 47.2998 155.645 47.881 156.65C48.4623 157.655 49.7448 158 50.7498 157.419C51.4735 157.003 51.8523 156.219 51.7923 155.439L53.686 154.355C53.2548 153.935 52.9398 153.395 52.7935 152.791L50.8998 153.879C50.8023 153.811 50.7048 153.755 50.5998 153.703V150.298C50.7048 150.249 50.806 150.189 50.8998 150.121L53.9035 151.839C53.8998 151.891 53.896 151.944 53.896 152C53.896 152.836 54.3873 153.56 55.096 153.898V157.603C54.3873 157.94 53.896 158.664 53.896 159.5C53.896 160.659 54.8373 161.6 55.996 161.6C57.1548 161.6 58.096 160.659 58.096 159.5C58.096 158.664 57.6048 157.94 56.896 157.603V153.898C57.001 153.849 57.1023 153.789 57.196 153.721L60.1998 155.439C60.1398 156.219 60.5223 156.999 61.2423 157.419C62.2473 158 63.5298 157.655 64.111 156.65C64.6923 155.645 64.3473 154.363 63.3423 153.781C63.2935 153.751 63.241 153.725 63.1923 153.703V150.298C63.2448 150.275 63.2935 150.249 63.3423 150.219C64.3473 149.638 64.6923 148.355 64.111 147.35C63.5298 146.345 62.2548 146 61.2498 146.581C60.526 146.998 60.1473 147.781 60.2073 148.561L58.3098 149.645C58.741 150.065 59.056 150.605 59.2023 151.209L61.0998 150.121C61.1973 150.189 61.2948 150.245 61.3998 150.298V153.703C61.2948 153.751 61.1935 153.811 61.0998 153.875L58.096 152.158C58.0998 152.105 58.1035 152.053 58.1035 151.996C58.1035 151.16 57.6123 150.436 56.9035 150.099V146.394L56.8998 146.398Z" fill="#1DAF9C"/>
<path d="M94.5824 134.909L98.2259 145.571H98.3729L102.016 134.909H104.151L99.4403 148H97.1584L92.4474 134.909H94.5824ZM107.509 148.217C106.887 148.217 106.324 148.102 105.821 147.872C105.318 147.638 104.92 147.299 104.626 146.856C104.336 146.413 104.191 145.869 104.191 145.226C104.191 144.672 104.298 144.216 104.511 143.858C104.724 143.5 105.012 143.217 105.374 143.008C105.736 142.799 106.141 142.641 106.588 142.535C107.036 142.428 107.492 142.347 107.956 142.292C108.544 142.224 109.022 142.168 109.388 142.126C109.755 142.079 110.021 142.004 110.187 141.902C110.353 141.8 110.436 141.634 110.436 141.403V141.359C110.436 140.8 110.279 140.368 109.963 140.061C109.652 139.754 109.188 139.601 108.57 139.601C107.926 139.601 107.419 139.744 107.049 140.029C106.682 140.31 106.429 140.624 106.288 140.969L104.492 140.56C104.705 139.963 105.016 139.482 105.425 139.115C105.838 138.744 106.313 138.476 106.85 138.31C107.387 138.139 107.952 138.054 108.544 138.054C108.936 138.054 109.352 138.101 109.791 138.195C110.234 138.284 110.647 138.45 111.031 138.693C111.419 138.936 111.736 139.283 111.983 139.735C112.23 140.183 112.354 140.764 112.354 141.48V148H110.487V146.658H110.411C110.287 146.905 110.102 147.148 109.855 147.386C109.607 147.625 109.29 147.823 108.902 147.981C108.514 148.138 108.05 148.217 107.509 148.217ZM107.924 146.683C108.453 146.683 108.904 146.579 109.279 146.37C109.659 146.161 109.946 145.888 110.142 145.552C110.343 145.211 110.443 144.847 110.443 144.459V143.193C110.375 143.261 110.242 143.325 110.046 143.385C109.855 143.44 109.635 143.489 109.388 143.532C109.141 143.57 108.9 143.607 108.666 143.641C108.431 143.67 108.235 143.696 108.078 143.717C107.707 143.764 107.368 143.843 107.061 143.954C106.759 144.065 106.516 144.224 106.333 144.433C106.154 144.638 106.064 144.911 106.064 145.251C106.064 145.724 106.239 146.082 106.588 146.325C106.938 146.564 107.383 146.683 107.924 146.683ZM116.541 134.909V148H114.63V134.909H116.541ZM125.061 143.928V138.182H126.979V148H125.1V146.3H124.998C124.772 146.824 124.409 147.261 123.911 147.61C123.417 147.955 122.801 148.128 122.064 148.128C121.433 148.128 120.875 147.989 120.389 147.712C119.907 147.431 119.528 147.016 119.251 146.466C118.978 145.916 118.842 145.237 118.842 144.427V138.182H120.753V144.197C120.753 144.866 120.939 145.398 121.309 145.795C121.68 146.191 122.162 146.389 122.754 146.389C123.112 146.389 123.468 146.3 123.821 146.121C124.179 145.942 124.476 145.671 124.71 145.309C124.949 144.947 125.066 144.487 125.061 143.928ZM133.509 148.198C132.541 148.198 131.708 147.991 131.009 147.578C130.315 147.161 129.778 146.575 129.399 145.82C129.024 145.062 128.836 144.173 128.836 143.155C128.836 142.149 129.024 141.263 129.399 140.496C129.778 139.729 130.306 139.13 130.984 138.7C131.666 138.269 132.462 138.054 133.374 138.054C133.928 138.054 134.465 138.146 134.985 138.329C135.505 138.512 135.972 138.8 136.385 139.192C136.798 139.584 137.124 140.093 137.363 140.719C137.602 141.342 137.721 142.098 137.721 142.989V143.666H129.916V142.234H135.848C135.848 141.732 135.746 141.286 135.541 140.898C135.337 140.506 135.049 140.197 134.678 139.972C134.312 139.746 133.881 139.633 133.387 139.633C132.85 139.633 132.381 139.765 131.981 140.029C131.585 140.289 131.278 140.63 131.06 141.052C130.847 141.469 130.741 141.923 130.741 142.413V143.532C130.741 144.188 130.856 144.746 131.086 145.207C131.32 145.667 131.646 146.018 132.064 146.261C132.482 146.5 132.97 146.619 133.528 146.619C133.89 146.619 134.22 146.568 134.519 146.466C134.817 146.359 135.075 146.202 135.292 145.993C135.509 145.784 135.676 145.526 135.791 145.219L137.6 145.545C137.455 146.078 137.195 146.545 136.82 146.945C136.449 147.342 135.982 147.651 135.42 147.872C134.862 148.089 134.225 148.198 133.509 148.198Z" fill="#0E101B"/>
<path d="M92.6761 160.912V159.818H100.312V160.912H97.1108V170H95.8778V160.912H92.6761ZM101.972 170V162.364H103.146V170H101.972ZM102.569 161.091C102.34 161.091 102.143 161.013 101.977 160.857C101.815 160.701 101.734 160.514 101.734 160.295C101.734 160.077 101.815 159.889 101.977 159.734C102.143 159.578 102.34 159.5 102.569 159.5C102.798 159.5 102.993 159.578 103.156 159.734C103.321 159.889 103.404 160.077 103.404 160.295C103.404 160.514 103.321 160.701 103.156 160.857C102.993 161.013 102.798 161.091 102.569 161.091ZM108.532 162.364V163.358H104.574V162.364H108.532ZM105.728 160.534H106.901V167.812C106.901 168.144 106.949 168.393 107.045 168.558C107.144 168.721 107.27 168.83 107.423 168.886C107.579 168.939 107.743 168.966 107.915 168.966C108.044 168.966 108.15 168.959 108.233 168.946C108.316 168.929 108.382 168.916 108.432 168.906L108.671 169.96C108.591 169.99 108.48 170.02 108.338 170.05C108.195 170.083 108.015 170.099 107.796 170.099C107.464 170.099 107.14 170.028 106.821 169.886C106.506 169.743 106.245 169.526 106.036 169.234C105.83 168.943 105.728 168.575 105.728 168.131V160.534ZM111.55 159.818V170H110.377V159.818H111.55ZM116.817 170.159C116.081 170.159 115.446 169.997 114.912 169.672C114.382 169.344 113.973 168.886 113.684 168.3C113.399 167.71 113.257 167.024 113.257 166.241C113.257 165.459 113.399 164.77 113.684 164.173C113.973 163.573 114.374 163.106 114.888 162.771C115.405 162.433 116.008 162.264 116.697 162.264C117.095 162.264 117.488 162.33 117.875 162.463C118.263 162.596 118.616 162.811 118.934 163.109C119.253 163.404 119.506 163.795 119.695 164.283C119.884 164.77 119.978 165.37 119.978 166.082V166.58H114.092V165.565H118.785C118.785 165.134 118.699 164.75 118.527 164.412C118.358 164.074 118.116 163.807 117.801 163.612C117.489 163.416 117.121 163.318 116.697 163.318C116.23 163.318 115.826 163.434 115.484 163.666C115.146 163.895 114.886 164.193 114.704 164.561C114.521 164.929 114.43 165.323 114.43 165.744V166.42C114.43 166.997 114.53 167.486 114.728 167.887C114.931 168.285 115.211 168.588 115.569 168.797C115.927 169.002 116.343 169.105 116.817 169.105C117.125 169.105 117.403 169.062 117.652 168.976C117.904 168.886 118.121 168.754 118.303 168.578C118.485 168.399 118.626 168.177 118.726 167.912L119.859 168.23C119.74 168.615 119.539 168.953 119.258 169.244C118.976 169.533 118.628 169.758 118.214 169.92C117.799 170.08 117.334 170.159 116.817 170.159Z" fill="#525866"/>
<path d="M24 208.5H275.2C279.342 208.5 282.7 211.858 282.7 216V280C282.7 284.142 279.342 287.5 275.2 287.5H24C19.8579 287.5 16.5 284.142 16.5 280V216C16.5 211.858 19.8579 208.5 24 208.5Z" fill="white"/>
<path d="M24 208.5H275.2C279.342 208.5 282.7 211.858 282.7 216V280C282.7 284.142 279.342 287.5 275.2 287.5H24C19.8579 287.5 16.5 284.142 16.5 280V216C16.5 211.858 19.8579 208.5 24 208.5Z" stroke="#E1E4EA"/>
<rect x="32" y="224" width="48" height="48" rx="24" fill="#E4FBF8"/>
<path d="M56.8998 242.397C57.6085 242.06 58.0998 241.336 58.0998 240.5C58.0998 239.341 57.1585 238.4 55.9998 238.4C54.841 238.4 53.8998 239.341 53.8998 240.5C53.8998 241.336 54.391 242.06 55.0998 242.397V246.102C54.9948 246.151 54.8935 246.211 54.7998 246.279L51.796 244.561C51.856 243.781 51.4735 243.001 50.7498 242.581C49.7448 242 48.4623 242.345 47.881 243.35C47.2998 244.355 47.6448 245.637 48.6498 246.219C48.6985 246.249 48.7473 246.275 48.7998 246.297V249.702C48.751 249.725 48.6985 249.751 48.6498 249.781C47.6448 250.362 47.2998 251.645 47.881 252.65C48.4623 253.655 49.7448 254 50.7498 253.419C51.4735 253.002 51.8523 252.219 51.7923 251.439L53.686 250.355C53.2548 249.935 52.9398 249.395 52.7935 248.791L50.8998 249.879C50.8023 249.811 50.7048 249.755 50.5998 249.702V246.297C50.7048 246.249 50.806 246.189 50.8998 246.121L53.9035 247.839C53.8998 247.891 53.896 247.944 53.896 248C53.896 248.836 54.3873 249.56 55.096 249.897V253.602C54.3873 253.94 53.896 254.664 53.896 255.5C53.896 256.659 54.8373 257.6 55.996 257.6C57.1548 257.6 58.096 256.659 58.096 255.5C58.096 254.664 57.6048 253.94 56.896 253.602V249.897C57.001 249.849 57.1023 249.789 57.196 249.721L60.1998 251.439C60.1398 252.219 60.5223 252.999 61.2423 253.419C62.2473 254 63.5298 253.655 64.111 252.65C64.6923 251.645 64.3473 250.362 63.3423 249.781C63.2935 249.751 63.241 249.725 63.1923 249.702V246.297C63.2448 246.275 63.2935 246.249 63.3423 246.219C64.3473 245.637 64.6923 244.355 64.111 243.35C63.5298 242.345 62.2548 242 61.2498 242.581C60.526 242.997 60.1473 243.781 60.2073 244.561L58.3098 245.645C58.741 246.065 59.056 246.605 59.2023 247.209L61.0998 246.121C61.1973 246.189 61.2948 246.245 61.3998 246.297V249.702C61.2948 249.751 61.1935 249.811 61.0998 249.875L58.096 248.157C58.0998 248.105 58.1035 248.052 58.1035 247.996C58.1035 247.16 57.6123 246.436 56.9035 246.099V242.394L56.8998 242.397Z" fill="#1DAF9C"/>
<path d="M92.6761 230.912V229.818H100.312V230.912H97.1108V240H95.8778V230.912H92.6761ZM101.972 240V232.364H103.146V240H101.972ZM102.569 231.091C102.34 231.091 102.143 231.013 101.977 230.857C101.815 230.701 101.734 230.514 101.734 230.295C101.734 230.077 101.815 229.889 101.977 229.734C102.143 229.578 102.34 229.5 102.569 229.5C102.798 229.5 102.993 229.578 103.156 229.734C103.321 229.889 103.404 230.077 103.404 230.295C103.404 230.514 103.321 230.701 103.156 230.857C102.993 231.013 102.798 231.091 102.569 231.091ZM108.532 232.364V233.358H104.574V232.364H108.532ZM105.728 230.534H106.901V237.812C106.901 238.144 106.949 238.393 107.045 238.558C107.144 238.721 107.27 238.83 107.423 238.886C107.579 238.939 107.743 238.966 107.915 238.966C108.044 238.966 108.15 238.959 108.233 238.946C108.316 238.929 108.382 238.916 108.432 238.906L108.671 239.96C108.591 239.99 108.48 240.02 108.338 240.05C108.195 240.083 108.015 240.099 107.796 240.099C107.464 240.099 107.14 240.028 106.821 239.886C106.506 239.743 106.245 239.526 106.036 239.234C105.83 238.943 105.728 238.575 105.728 238.131V230.534ZM111.55 229.818V240H110.377V229.818H111.55ZM116.817 240.159C116.081 240.159 115.446 239.997 114.912 239.672C114.382 239.344 113.973 238.886 113.684 238.3C113.399 237.71 113.257 237.024 113.257 236.241C113.257 235.459 113.399 234.77 113.684 234.173C113.973 233.573 114.374 233.106 114.888 232.771C115.405 232.433 116.008 232.264 116.697 232.264C117.095 232.264 117.488 232.33 117.875 232.463C118.263 232.596 118.616 232.811 118.934 233.109C119.253 233.404 119.506 233.795 119.695 234.283C119.884 234.77 119.978 235.37 119.978 236.082V236.58H114.092V235.565H118.785C118.785 235.134 118.699 234.75 118.527 234.412C118.358 234.074 118.116 233.807 117.801 233.612C117.489 233.416 117.121 233.318 116.697 233.318C116.23 233.318 115.826 233.434 115.484 233.666C115.146 233.895 114.886 234.193 114.704 234.561C114.521 234.929 114.43 235.323 114.43 235.744V236.42C114.43 236.997 114.53 237.486 114.728 237.887C114.931 238.285 115.211 238.588 115.569 238.797C115.927 239.002 116.343 239.105 116.817 239.105C117.125 239.105 117.403 239.062 117.652 238.976C117.904 238.886 118.121 238.754 118.303 238.578C118.485 238.399 118.626 238.177 118.726 237.912L119.859 238.23C119.74 238.615 119.539 238.953 119.258 239.244C118.976 239.533 118.628 239.758 118.214 239.92C117.799 240.08 117.334 240.159 116.817 240.159Z" fill="#525866"/>
<path d="M161.834 229.818V240H160.601V231.111H160.541L158.055 232.761V231.509L160.601 229.818H161.834ZM167.939 240.139C167.257 240.139 166.653 240.018 166.13 239.776C165.609 239.531 165.203 239.195 164.912 238.767C164.62 238.336 164.476 237.846 164.479 237.295C164.476 236.865 164.56 236.467 164.733 236.102C164.905 235.734 165.14 235.428 165.439 235.183C165.74 234.934 166.077 234.777 166.448 234.71V234.651C165.961 234.525 165.573 234.251 165.285 233.83C164.996 233.406 164.854 232.924 164.857 232.384C164.854 231.866 164.985 231.404 165.25 230.996C165.515 230.589 165.879 230.267 166.343 230.032C166.811 229.797 167.343 229.679 167.939 229.679C168.529 229.679 169.056 229.797 169.52 230.032C169.984 230.267 170.349 230.589 170.614 230.996C170.883 231.404 171.018 231.866 171.022 232.384C171.018 232.924 170.871 233.406 170.579 233.83C170.291 234.251 169.908 234.525 169.431 234.651V234.71C169.799 234.777 170.13 234.934 170.425 235.183C170.72 235.428 170.955 235.734 171.131 236.102C171.307 236.467 171.396 236.865 171.4 237.295C171.396 237.846 171.247 238.336 170.952 238.767C170.66 239.195 170.254 239.531 169.734 239.776C169.217 240.018 168.619 240.139 167.939 240.139ZM167.939 239.045C168.4 239.045 168.798 238.971 169.133 238.822C169.467 238.673 169.726 238.462 169.908 238.19C170.09 237.919 170.183 237.6 170.187 237.236C170.183 236.851 170.084 236.512 169.888 236.217C169.693 235.922 169.426 235.69 169.088 235.521C168.753 235.352 168.37 235.267 167.939 235.267C167.505 235.267 167.117 235.352 166.776 235.521C166.438 235.69 166.171 235.922 165.976 236.217C165.783 236.512 165.689 236.851 165.692 237.236C165.689 237.6 165.777 237.919 165.956 238.19C166.138 238.462 166.398 238.673 166.736 238.822C167.074 238.971 167.475 239.045 167.939 239.045ZM167.939 234.213C168.304 234.213 168.627 234.14 168.909 233.994C169.194 233.848 169.418 233.645 169.58 233.383C169.742 233.121 169.825 232.814 169.829 232.463C169.825 232.118 169.744 231.818 169.585 231.563C169.426 231.305 169.205 231.106 168.924 230.967C168.642 230.824 168.314 230.753 167.939 230.753C167.558 230.753 167.225 230.824 166.94 230.967C166.655 231.106 166.435 231.305 166.279 231.563C166.123 231.818 166.047 232.118 166.05 232.463C166.047 232.814 166.125 233.121 166.284 233.383C166.446 233.645 166.67 233.848 166.955 233.994C167.24 234.14 167.568 234.213 167.939 234.213ZM176.542 240.139C175.793 240.139 175.155 239.935 174.628 239.528C174.101 239.117 173.698 238.522 173.42 237.743C173.141 236.961 173.002 236.016 173.002 234.909C173.002 233.809 173.141 232.869 173.42 232.09C173.702 231.308 174.106 230.711 174.633 230.3C175.163 229.886 175.8 229.679 176.542 229.679C177.284 229.679 177.919 229.886 178.446 230.3C178.976 230.711 179.381 231.308 179.659 232.09C179.941 232.869 180.082 233.809 180.082 234.909C180.082 236.016 179.943 236.961 179.664 237.743C179.386 238.522 178.983 239.117 178.456 239.528C177.929 239.935 177.291 240.139 176.542 240.139ZM176.542 239.045C177.284 239.045 177.861 238.687 178.272 237.972C178.683 237.256 178.889 236.235 178.889 234.909C178.889 234.027 178.794 233.277 178.605 232.657C178.42 232.037 178.151 231.565 177.8 231.24C177.452 230.915 177.032 230.753 176.542 230.753C175.806 230.753 175.231 231.116 174.817 231.842C174.403 232.564 174.195 233.587 174.195 234.909C174.195 235.791 174.288 236.54 174.474 237.156C174.659 237.773 174.926 238.242 175.274 238.563C175.626 238.885 176.048 239.045 176.542 239.045ZM185.506 229.341L182.225 241.531H181.151L184.432 229.341H185.506ZM189.975 240.139C189.392 240.139 188.866 240.023 188.399 239.791C187.932 239.559 187.557 239.241 187.275 238.837C186.994 238.432 186.84 237.972 186.813 237.455H188.006C188.053 237.915 188.261 238.296 188.633 238.598C189.007 238.896 189.455 239.045 189.975 239.045C190.393 239.045 190.764 238.948 191.089 238.752C191.417 238.557 191.674 238.288 191.859 237.947C192.048 237.602 192.143 237.213 192.143 236.778C192.143 236.334 192.045 235.938 191.849 235.59C191.657 235.239 191.392 234.962 191.054 234.76C190.716 234.558 190.33 234.455 189.895 234.452C189.584 234.448 189.264 234.496 188.936 234.596C188.608 234.692 188.338 234.816 188.126 234.969L186.972 234.83L187.589 229.818H192.878V230.912H188.623L188.265 233.915H188.324C188.533 233.749 188.795 233.612 189.11 233.502C189.425 233.393 189.753 233.338 190.094 233.338C190.717 233.338 191.273 233.487 191.76 233.786C192.25 234.08 192.635 234.485 192.913 234.999C193.195 235.512 193.336 236.099 193.336 236.759C193.336 237.408 193.19 237.988 192.898 238.499C192.61 239.006 192.212 239.407 191.705 239.702C191.198 239.993 190.621 240.139 189.975 240.139ZM198.548 240.139C197.799 240.139 197.161 239.935 196.634 239.528C196.107 239.117 195.704 238.522 195.426 237.743C195.147 236.961 195.008 236.016 195.008 234.909C195.008 233.809 195.147 232.869 195.426 232.09C195.707 231.308 196.112 230.711 196.639 230.3C197.169 229.886 197.805 229.679 198.548 229.679C199.29 229.679 199.925 229.886 200.452 230.3C200.982 230.711 201.387 231.308 201.665 232.09C201.947 232.869 202.088 233.809 202.088 234.909C202.088 236.016 201.948 236.961 201.67 237.743C201.392 238.522 200.989 239.117 200.462 239.528C199.935 239.935 199.297 240.139 198.548 240.139ZM198.548 239.045C199.29 239.045 199.867 238.687 200.278 237.972C200.689 237.256 200.894 236.235 200.894 234.909C200.894 234.027 200.8 233.277 200.611 232.657C200.425 232.037 200.157 231.565 199.806 231.24C199.458 230.915 199.038 230.753 198.548 230.753C197.812 230.753 197.237 231.116 196.823 231.842C196.408 232.564 196.201 233.587 196.201 234.909C196.201 235.791 196.294 236.54 196.48 237.156C196.665 237.773 196.932 238.242 197.28 238.563C197.631 238.885 198.054 239.045 198.548 239.045ZM207.214 240.139C206.465 240.139 205.827 239.935 205.3 239.528C204.773 239.117 204.37 238.522 204.092 237.743C203.813 236.961 203.674 236.016 203.674 234.909C203.674 233.809 203.813 232.869 204.092 232.09C204.373 231.308 204.778 230.711 205.305 230.3C205.835 229.886 206.471 229.679 207.214 229.679C207.956 229.679 208.591 229.886 209.118 230.3C209.648 230.711 210.053 231.308 210.331 232.09C210.613 232.869 210.754 233.809 210.754 234.909C210.754 236.016 210.614 236.961 210.336 237.743C210.058 238.522 209.655 239.117 209.128 239.528C208.601 239.935 207.963 240.139 207.214 240.139ZM207.214 239.045C207.956 239.045 208.533 238.687 208.944 237.972C209.355 237.256 209.56 236.235 209.56 234.909C209.56 234.027 209.466 233.277 209.277 232.657C209.091 232.037 208.823 231.565 208.472 231.24C208.124 230.915 207.704 230.753 207.214 230.753C206.478 230.753 205.903 231.116 205.489 231.842C205.074 232.564 204.867 233.587 204.867 234.909C204.867 235.791 204.96 236.54 205.146 237.156C205.331 237.773 205.598 238.242 205.946 238.563C206.297 238.885 206.72 239.045 207.214 239.045ZM223.551 233C223.442 232.665 223.298 232.365 223.119 232.1C222.943 231.832 222.733 231.603 222.488 231.414C222.246 231.225 221.97 231.081 221.662 230.982C221.354 230.882 221.016 230.832 220.648 230.832C220.045 230.832 219.496 230.988 219.002 231.3C218.509 231.611 218.116 232.07 217.824 232.677C217.533 233.283 217.387 234.027 217.387 234.909C217.387 235.791 217.534 236.535 217.829 237.141C218.124 237.748 218.524 238.207 219.027 238.518C219.531 238.83 220.098 238.986 220.728 238.986C221.311 238.986 221.825 238.862 222.269 238.613C222.716 238.361 223.064 238.006 223.313 237.549C223.565 237.088 223.691 236.546 223.691 235.923L224.069 236.003H221.006V234.909H224.884V236.003C224.884 236.841 224.705 237.571 224.347 238.19C223.992 238.81 223.502 239.291 222.875 239.632C222.252 239.97 221.536 240.139 220.728 240.139C219.826 240.139 219.034 239.927 218.351 239.503C217.672 239.079 217.141 238.475 216.76 237.693C216.382 236.911 216.193 235.983 216.193 234.909C216.193 234.104 216.301 233.379 216.517 232.737C216.735 232.09 217.044 231.54 217.441 231.086C217.839 230.632 218.31 230.284 218.853 230.042C219.397 229.8 219.995 229.679 220.648 229.679C221.185 229.679 221.685 229.76 222.149 229.923C222.617 230.082 223.033 230.309 223.397 230.604C223.765 230.895 224.072 231.245 224.317 231.653C224.562 232.057 224.731 232.506 224.824 233H223.551ZM227.231 240V232.364H228.404V240H227.231ZM227.828 231.091C227.599 231.091 227.402 231.013 227.236 230.857C227.074 230.701 226.992 230.514 226.992 230.295C226.992 230.077 227.074 229.889 227.236 229.734C227.402 229.578 227.599 229.5 227.828 229.5C228.056 229.5 228.252 229.578 228.414 229.734C228.58 229.889 228.663 230.077 228.663 230.295C228.663 230.514 228.58 230.701 228.414 230.857C228.252 231.013 228.056 231.091 227.828 231.091ZM230.628 240V229.818H234.188C234.897 229.818 235.482 229.941 235.943 230.186C236.404 230.428 236.747 230.754 236.972 231.165C237.197 231.573 237.31 232.026 237.31 232.523C237.31 232.96 237.232 233.321 237.076 233.607C236.924 233.892 236.722 234.117 236.47 234.283C236.221 234.448 235.951 234.571 235.66 234.651V234.75C235.971 234.77 236.284 234.879 236.599 235.078C236.914 235.277 237.178 235.562 237.39 235.933C237.602 236.304 237.708 236.759 237.708 237.295C237.708 237.806 237.592 238.265 237.36 238.673C237.128 239.08 236.762 239.403 236.261 239.642C235.761 239.881 235.109 240 234.307 240H230.628ZM231.861 238.906H234.307C235.113 238.906 235.684 238.75 236.022 238.439C236.364 238.124 236.535 237.743 236.535 237.295C236.535 236.951 236.447 236.633 236.271 236.341C236.095 236.046 235.845 235.811 235.52 235.635C235.196 235.456 234.811 235.366 234.367 235.366H231.861V238.906ZM231.861 234.293H234.148C234.519 234.293 234.854 234.22 235.152 234.074C235.454 233.928 235.693 233.723 235.868 233.457C236.047 233.192 236.137 232.881 236.137 232.523C236.137 232.075 235.981 231.696 235.67 231.384C235.358 231.069 234.864 230.912 234.188 230.912H231.861V234.293Z" fill="#525866"/>
<g filter="url(#filter0_d_2702_3864)">
<rect x="247.7" y="225.5" width="19" height="19" rx="3.5" stroke="#E1E4EA" shape-rendering="crispEdges"/>
<path d="M260.414 230.552L261.18 231.291C261.666 231.761 261.666 232.521 261.18 232.99L260.239 233.899L257.711 231.46L258.652 230.552C259.139 230.083 259.926 230.083 260.412 230.552H260.414ZM252.739 236.262L257.272 231.885L259.8 234.325L255.265 238.7C255.063 238.895 254.812 239.038 254.538 239.117L252.199 239.781C252.035 239.828 251.858 239.785 251.738 239.667C251.617 239.548 251.57 239.381 251.619 239.222L252.307 236.964C252.389 236.699 252.537 236.457 252.739 236.262ZM256.422 238.899H262.333C262.592 238.899 262.8 239.1 262.8 239.35C262.8 239.599 262.592 239.8 262.333 239.8H256.422C256.163 239.8 255.955 239.599 255.955 239.35C255.955 239.1 256.163 238.899 256.422 238.899Z" fill="#99A0AE"/>
</g>
<rect x="92" y="251" width="175.2" height="20" rx="4" fill="#E4FBF8"/>
<rect x="92" y="251" width="76" height="20" rx="4" fill="#1DAF9C"/>
<defs>
<filter id="filter0_d_2702_3864" x="245.2" y="224" width="24" height="24" filterUnits="userSpaceOnUse" color-interpolation-filters="sRGB">
<feFlood flood-opacity="0" result="BackgroundImageFix"/>
<feColorMatrix in="SourceAlpha" type="matrix" values="0 0 0 0 0 0 0 0 0 0 0 0 0 0 0 0 0 0 127 0" result="hardAlpha"/>
<feOffset dy="1"/>
<feGaussianBlur stdDeviation="1"/>
<feComposite in2="hardAlpha" operator="out"/>
<feColorMatrix type="matrix" values="0 0 0 0 0.054902 0 0 0 0 0.0627451 0 0 0 0 0.105882 0 0 0 0.03 0"/>
<feBlend mode="normal" in2="BackgroundImageFix" result="effect1_dropShadow_2702_3864"/>
<feBlend mode="normal" in="SourceGraphic" in2="effect1_dropShadow_2702_3864" result="shape"/>
</filter>
</defs>
</svg>
