<svg width="268" height="80" viewBox="0 0 268 80" fill="none" xmlns="http://www.w3.org/2000/svg">
<path d="M8 0.5H259.2C263.342 0.500099 266.7 3.85792 266.7 8V72C266.7 76.1421 263.342 79.4999 259.2 79.5H8C3.85787 79.5 0.5 76.1421 0.5 72V8C0.500001 3.85787 3.85787 0.5 8 0.5Z" fill="white"/>
<path d="M8 0.5H259.2C263.342 0.500099 266.7 3.85792 266.7 8V72C266.7 76.1421 263.342 79.4999 259.2 79.5H8C3.85787 79.5 0.5 76.1421 0.5 72V8C0.500001 3.85787 3.85787 0.5 8 0.5Z" stroke="#E1E4EA"/>
<rect x="16" y="16" width="48" height="48" rx="24" fill="#E4FBF8"/>
<path d="M40.8998 34.3975C41.6085 34.06 42.0998 33.3362 42.0998 32.5C42.0998 31.3412 41.1585 30.4 39.9998 30.4C38.841 30.4 37.8998 31.3412 37.8998 32.5C37.8998 33.3362 38.391 34.06 39.0998 34.3975V38.1025C38.9948 38.1512 38.8935 38.2113 38.7998 38.2787L35.796 36.5613C35.856 35.7812 35.4735 35.0012 34.7498 34.5812C33.7448 34 32.4623 34.345 31.881 35.35C31.2998 36.355 31.6448 37.6375 32.6498 38.2188C32.6985 38.2487 32.7473 38.275 32.7998 38.2975V41.7025C32.751 41.725 32.6985 41.7513 32.6498 41.7812C31.6448 42.3625 31.2998 43.645 31.881 44.65C32.4623 45.655 33.7448 46 34.7498 45.4187C35.4735 45.0025 35.8523 44.2188 35.7923 43.4388L37.686 42.355C37.2548 41.935 36.9398 41.395 36.7935 40.7913L34.8998 41.8787C34.8023 41.8113 34.7048 41.755 34.5998 41.7025V38.2975C34.7048 38.2488 34.806 38.1887 34.8998 38.1212L37.9035 39.8387C37.8998 39.8912 37.896 39.9438 37.896 40C37.896 40.8363 38.3873 41.56 39.096 41.8975V45.6025C38.3873 45.94 37.896 46.6637 37.896 47.5C37.896 48.6588 38.8373 49.6 39.996 49.6C41.1548 49.6 42.096 48.6588 42.096 47.5C42.096 46.6637 41.6048 45.94 40.896 45.6025V41.8975C41.001 41.8488 41.1023 41.7887 41.196 41.7212L44.1998 43.4388C44.1398 44.2188 44.5223 44.9987 45.2423 45.4187C46.2473 46 47.5298 45.655 48.111 44.65C48.6923 43.645 48.3473 42.3625 47.3423 41.7812C47.2935 41.7513 47.241 41.725 47.1923 41.7025V38.2975C47.2448 38.275 47.2935 38.2487 47.3423 38.2188C48.3473 37.6375 48.6923 36.355 48.111 35.35C47.5298 34.345 46.2548 34 45.2498 34.5812C44.526 34.9975 44.1473 35.7812 44.2073 36.5613L42.3098 37.645C42.741 38.065 43.056 38.605 43.2023 39.2087L45.0998 38.1212C45.1973 38.1887 45.2948 38.245 45.3998 38.2975V41.7025C45.2948 41.7513 45.1935 41.8112 45.0998 41.875L42.096 40.1575C42.0998 40.105 42.1035 40.0525 42.1035 39.9963C42.1035 39.16 41.6123 38.4362 40.9035 38.0988V34.3937L40.8998 34.3975Z" fill="#1DAF9C"/>
<path d="M76.6761 22.9119V21.8182H84.3125V22.9119H81.1108V32H79.8778V22.9119H76.6761ZM85.9723 32V24.3636H87.1456V32H85.9723ZM86.5689 23.0909C86.3402 23.0909 86.143 23.013 85.9773 22.8572C85.8149 22.7015 85.7336 22.5142 85.7336 22.2955C85.7336 22.0767 85.8149 21.8894 85.9773 21.7337C86.143 21.5779 86.3402 21.5 86.5689 21.5C86.7976 21.5 86.9931 21.5779 87.1555 21.7337C87.3212 21.8894 87.4041 22.0767 87.4041 22.2955C87.4041 22.5142 87.3212 22.7015 87.1555 22.8572C86.9931 23.013 86.7976 23.0909 86.5689 23.0909ZM92.5316 24.3636V25.358H88.5742V24.3636H92.5316ZM89.7276 22.5341H90.9009V29.8125C90.9009 30.1439 90.949 30.3925 91.0451 30.5582C91.1445 30.7206 91.2704 30.83 91.4229 30.8864C91.5787 30.9394 91.7427 30.9659 91.9151 30.9659C92.0444 30.9659 92.1504 30.9593 92.2333 30.946C92.3161 30.9295 92.3824 30.9162 92.4321 30.9062L92.6708 31.9602C92.5912 31.9901 92.4802 32.0199 92.3377 32.0497C92.1952 32.0829 92.0145 32.0994 91.7958 32.0994C91.4643 32.0994 91.1395 32.0282 90.8213 31.8857C90.5065 31.7431 90.2446 31.526 90.0358 31.2344C89.8303 30.9427 89.7276 30.5748 89.7276 30.1307V22.5341ZM95.5498 21.8182V32H94.3766V21.8182H95.5498ZM100.817 32.1591C100.081 32.1591 99.446 31.9967 98.9124 31.6719C98.3821 31.3438 97.9728 30.8864 97.6844 30.2997C97.3994 29.7098 97.2569 29.0237 97.2569 28.2415C97.2569 27.4593 97.3994 26.7699 97.6844 26.1733C97.9728 25.5734 98.3738 25.1061 98.8875 24.7713C99.4046 24.4332 100.008 24.2642 100.697 24.2642C101.095 24.2642 101.488 24.3305 101.875 24.4631C102.263 24.5956 102.616 24.8111 102.934 25.1094C103.253 25.4044 103.506 25.7955 103.695 26.2827C103.884 26.7699 103.978 27.3698 103.978 28.0824V28.5795H98.0921V27.5653H102.785C102.785 27.1345 102.699 26.75 102.527 26.4119C102.358 26.0739 102.116 25.8071 101.801 25.6115C101.489 25.416 101.121 25.3182 100.697 25.3182C100.23 25.3182 99.8255 25.4342 99.4841 25.6662C99.1461 25.8949 98.8859 26.1932 98.7036 26.5611C98.5213 26.929 98.4302 27.3234 98.4302 27.7443V28.4205C98.4302 28.9972 98.5296 29.486 98.7285 29.8871C98.9306 30.2848 99.2107 30.5881 99.5687 30.7969C99.9266 31.0024 100.343 31.1051 100.817 31.1051C101.125 31.1051 101.403 31.062 101.652 30.9759C101.904 30.8864 102.121 30.7538 102.303 30.5781C102.485 30.3991 102.626 30.1771 102.726 29.9119L103.859 30.2301C103.74 30.6146 103.539 30.9527 103.258 31.2443C102.976 31.5327 102.628 31.758 102.214 31.9205C101.799 32.0795 101.334 32.1591 100.817 32.1591Z" fill="#525866"/>
<path d="M145.834 21.8182V32H144.601V23.1108H144.541L142.055 24.7614V23.5085L144.601 21.8182H145.834ZM151.939 32.1392C151.257 32.1392 150.653 32.0182 150.13 31.7763C149.609 31.531 149.203 31.1946 148.912 30.767C148.62 30.3362 148.476 29.8456 148.479 29.2955C148.476 28.8646 148.56 28.4669 148.733 28.1023C148.905 27.7344 149.14 27.4278 149.439 27.1825C149.74 26.9339 150.077 26.7765 150.448 26.7102V26.6506C149.961 26.5246 149.573 26.2512 149.285 25.8303C148.996 25.406 148.854 24.9238 148.857 24.3835C148.854 23.8665 148.985 23.4041 149.25 22.9964C149.515 22.5888 149.879 22.2673 150.343 22.032C150.811 21.7966 151.343 21.679 151.939 21.679C152.529 21.679 153.056 21.7966 153.52 22.032C153.984 22.2673 154.349 22.5888 154.614 22.9964C154.883 23.4041 155.018 23.8665 155.022 24.3835C155.018 24.9238 154.871 25.406 154.579 25.8303C154.291 26.2512 153.908 26.5246 153.431 26.6506V26.7102C153.799 26.7765 154.13 26.9339 154.425 27.1825C154.72 27.4278 154.955 27.7344 155.131 28.1023C155.307 28.4669 155.396 28.8646 155.4 29.2955C155.396 29.8456 155.247 30.3362 154.952 30.767C154.66 31.1946 154.254 31.531 153.734 31.7763C153.217 32.0182 152.619 32.1392 151.939 32.1392ZM151.939 31.0455C152.4 31.0455 152.798 30.9709 153.133 30.8217C153.467 30.6726 153.726 30.4621 153.908 30.1903C154.09 29.9186 154.183 29.6004 154.187 29.2358C154.183 28.8513 154.084 28.5116 153.888 28.2166C153.693 27.9216 153.426 27.6896 153.088 27.5206C152.753 27.3516 152.37 27.267 151.939 27.267C151.505 27.267 151.117 27.3516 150.776 27.5206C150.438 27.6896 150.171 27.9216 149.976 28.2166C149.783 28.5116 149.689 28.8513 149.692 29.2358C149.689 29.6004 149.777 29.9186 149.956 30.1903C150.138 30.4621 150.398 30.6726 150.736 30.8217C151.074 30.9709 151.475 31.0455 151.939 31.0455ZM151.939 26.2131C152.304 26.2131 152.627 26.1402 152.909 25.9943C153.194 25.8485 153.418 25.6446 153.58 25.3828C153.742 25.121 153.825 24.8144 153.829 24.4631C153.825 24.1184 153.744 23.8184 153.585 23.5632C153.426 23.3047 153.205 23.1058 152.924 22.9666C152.642 22.8241 152.314 22.7528 151.939 22.7528C151.558 22.7528 151.225 22.8241 150.94 22.9666C150.655 23.1058 150.435 23.3047 150.279 23.5632C150.123 23.8184 150.047 24.1184 150.05 24.4631C150.047 24.8144 150.125 25.121 150.284 25.3828C150.446 25.6446 150.67 25.8485 150.955 25.9943C151.24 26.1402 151.568 26.2131 151.939 26.2131ZM160.542 32.1392C159.793 32.1392 159.155 31.9354 158.628 31.5277C158.101 31.1167 157.698 30.5218 157.42 29.7429C157.141 28.9607 157.002 28.0161 157.002 26.9091C157.002 25.8087 157.141 24.8691 157.42 24.0902C157.702 23.308 158.106 22.7114 158.633 22.3004C159.163 21.8861 159.8 21.679 160.542 21.679C161.284 21.679 161.919 21.8861 162.446 22.3004C162.976 22.7114 163.381 23.308 163.659 24.0902C163.941 24.8691 164.082 25.8087 164.082 26.9091C164.082 28.0161 163.943 28.9607 163.664 29.7429C163.386 30.5218 162.983 31.1167 162.456 31.5277C161.929 31.9354 161.291 32.1392 160.542 32.1392ZM160.542 31.0455C161.284 31.0455 161.861 30.6875 162.272 29.9716C162.683 29.2557 162.889 28.2348 162.889 26.9091C162.889 26.0275 162.794 25.2768 162.605 24.657C162.42 24.0372 162.151 23.5649 161.8 23.2401C161.452 22.9152 161.032 22.7528 160.542 22.7528C159.806 22.7528 159.231 23.1158 158.817 23.8416C158.403 24.5642 158.195 25.5866 158.195 26.9091C158.195 27.7907 158.288 28.5398 158.474 29.1562C158.659 29.7727 158.926 30.2417 159.274 30.5632C159.626 30.8847 160.048 31.0455 160.542 31.0455ZM169.506 21.3409L166.225 33.5312H165.151L168.432 21.3409H169.506ZM173.975 32.1392C173.392 32.1392 172.866 32.0232 172.399 31.7912C171.932 31.5592 171.557 31.241 171.275 30.8366C170.994 30.4323 170.84 29.9716 170.813 29.4545H172.006C172.053 29.9152 172.261 30.2964 172.633 30.598C173.007 30.8963 173.455 31.0455 173.975 31.0455C174.393 31.0455 174.764 30.9477 175.089 30.7521C175.417 30.5566 175.674 30.2881 175.859 29.9467C176.048 29.602 176.143 29.2126 176.143 28.7784C176.143 28.3343 176.045 27.9382 175.849 27.5902C175.657 27.2389 175.392 26.9621 175.054 26.7599C174.716 26.5578 174.33 26.455 173.895 26.4517C173.584 26.4484 173.264 26.4964 172.936 26.5959C172.608 26.692 172.338 26.8163 172.126 26.9688L170.972 26.8295L171.589 21.8182H176.878V22.9119H172.623L172.265 25.9148H172.324C172.533 25.7491 172.795 25.6115 173.11 25.5021C173.425 25.3928 173.753 25.3381 174.094 25.3381C174.717 25.3381 175.273 25.4872 175.76 25.7855C176.25 26.0805 176.635 26.4848 176.913 26.9986C177.195 27.5123 177.336 28.099 177.336 28.7585C177.336 29.4081 177.19 29.9882 176.898 30.4986C176.61 31.0057 176.212 31.4067 175.705 31.7017C175.198 31.9934 174.621 32.1392 173.975 32.1392ZM182.548 32.1392C181.799 32.1392 181.161 31.9354 180.634 31.5277C180.107 31.1167 179.704 30.5218 179.426 29.7429C179.147 28.9607 179.008 28.0161 179.008 26.9091C179.008 25.8087 179.147 24.8691 179.426 24.0902C179.707 23.308 180.112 22.7114 180.639 22.3004C181.169 21.8861 181.805 21.679 182.548 21.679C183.29 21.679 183.925 21.8861 184.452 22.3004C184.982 22.7114 185.387 23.308 185.665 24.0902C185.947 24.8691 186.088 25.8087 186.088 26.9091C186.088 28.0161 185.948 28.9607 185.67 29.7429C185.392 30.5218 184.989 31.1167 184.462 31.5277C183.935 31.9354 183.297 32.1392 182.548 32.1392ZM182.548 31.0455C183.29 31.0455 183.867 30.6875 184.278 29.9716C184.689 29.2557 184.894 28.2348 184.894 26.9091C184.894 26.0275 184.8 25.2768 184.611 24.657C184.425 24.0372 184.157 23.5649 183.806 23.2401C183.458 22.9152 183.038 22.7528 182.548 22.7528C181.812 22.7528 181.237 23.1158 180.823 23.8416C180.408 24.5642 180.201 25.5866 180.201 26.9091C180.201 27.7907 180.294 28.5398 180.48 29.1562C180.665 29.7727 180.932 30.2417 181.28 30.5632C181.631 30.8847 182.054 31.0455 182.548 31.0455ZM191.214 32.1392C190.465 32.1392 189.827 31.9354 189.3 31.5277C188.773 31.1167 188.37 30.5218 188.092 29.7429C187.813 28.9607 187.674 28.0161 187.674 26.9091C187.674 25.8087 187.813 24.8691 188.092 24.0902C188.373 23.308 188.778 22.7114 189.305 22.3004C189.835 21.8861 190.471 21.679 191.214 21.679C191.956 21.679 192.591 21.8861 193.118 22.3004C193.648 22.7114 194.053 23.308 194.331 24.0902C194.613 24.8691 194.754 25.8087 194.754 26.9091C194.754 28.0161 194.614 28.9607 194.336 29.7429C194.058 30.5218 193.655 31.1167 193.128 31.5277C192.601 31.9354 191.963 32.1392 191.214 32.1392ZM191.214 31.0455C191.956 31.0455 192.533 30.6875 192.944 29.9716C193.355 29.2557 193.56 28.2348 193.56 26.9091C193.56 26.0275 193.466 25.2768 193.277 24.657C193.091 24.0372 192.823 23.5649 192.472 23.2401C192.124 22.9152 191.704 22.7528 191.214 22.7528C190.478 22.7528 189.903 23.1158 189.489 23.8416C189.074 24.5642 188.867 25.5866 188.867 26.9091C188.867 27.7907 188.96 28.5398 189.146 29.1562C189.331 29.7727 189.598 30.2417 189.946 30.5632C190.297 30.8847 190.72 31.0455 191.214 31.0455ZM207.551 25C207.442 24.6652 207.298 24.3653 207.119 24.1001C206.943 23.8317 206.733 23.603 206.488 23.4141C206.246 23.2251 205.97 23.081 205.662 22.9815C205.354 22.8821 205.016 22.8324 204.648 22.8324C204.045 22.8324 203.496 22.9882 203.002 23.2997C202.509 23.6113 202.116 24.0703 201.824 24.6768C201.533 25.2834 201.387 26.0275 201.387 26.9091C201.387 27.7907 201.534 28.5348 201.829 29.1413C202.124 29.7479 202.524 30.2069 203.027 30.5185C203.531 30.83 204.098 30.9858 204.728 30.9858C205.311 30.9858 205.825 30.8615 206.269 30.6129C206.716 30.361 207.064 30.0064 207.313 29.549C207.565 29.0883 207.691 28.5464 207.691 27.9233L208.069 28.0028H205.006V26.9091H208.884V28.0028C208.884 28.8414 208.705 29.5705 208.347 30.1903C207.992 30.8101 207.502 31.2907 206.875 31.6321C206.252 31.9702 205.536 32.1392 204.728 32.1392C203.826 32.1392 203.034 31.9271 202.351 31.5028C201.672 31.0786 201.141 30.4754 200.76 29.6932C200.382 28.911 200.193 27.983 200.193 26.9091C200.193 26.1037 200.301 25.3795 200.517 24.7365C200.735 24.0902 201.044 23.54 201.441 23.0859C201.839 22.6319 202.31 22.2839 202.853 22.0419C203.397 21.8 203.995 21.679 204.648 21.679C205.185 21.679 205.685 21.7602 206.149 21.9226C206.617 22.0817 207.033 22.3087 207.397 22.6037C207.765 22.8954 208.072 23.245 208.317 23.6527C208.562 24.0571 208.731 24.5062 208.824 25H207.551ZM211.231 32V24.3636H212.404V32H211.231ZM211.828 23.0909C211.599 23.0909 211.402 23.013 211.236 22.8572C211.074 22.7015 210.992 22.5142 210.992 22.2955C210.992 22.0767 211.074 21.8894 211.236 21.7337C211.402 21.5779 211.599 21.5 211.828 21.5C212.056 21.5 212.252 21.5779 212.414 21.7337C212.58 21.8894 212.663 22.0767 212.663 22.2955C212.663 22.5142 212.58 22.7015 212.414 22.8572C212.252 23.013 212.056 23.0909 211.828 23.0909ZM214.628 32V21.8182H218.188C218.897 21.8182 219.482 21.9408 219.943 22.1861C220.404 22.428 220.747 22.7545 220.972 23.1655C221.197 23.5732 221.31 24.0256 221.31 24.5227C221.31 24.9602 221.232 25.3215 221.076 25.6065C220.924 25.8916 220.722 26.117 220.47 26.2827C220.221 26.4484 219.951 26.571 219.66 26.6506V26.75C219.971 26.7699 220.284 26.8793 220.599 27.0781C220.914 27.277 221.178 27.562 221.39 27.9332C221.602 28.3045 221.708 28.7585 221.708 29.2955C221.708 29.8059 221.592 30.2649 221.36 30.6726C221.128 31.0803 220.762 31.4034 220.261 31.642C219.761 31.8807 219.109 32 218.307 32H214.628ZM215.861 30.9062H218.307C219.113 30.9062 219.684 30.7505 220.022 30.4389C220.364 30.1241 220.535 29.7429 220.535 29.2955C220.535 28.9508 220.447 28.6326 220.271 28.3409C220.095 28.0459 219.845 27.8106 219.52 27.6349C219.196 27.456 218.811 27.3665 218.367 27.3665H215.861V30.9062ZM215.861 26.2926H218.148C218.519 26.2926 218.854 26.2197 219.152 26.0739C219.454 25.928 219.693 25.7225 219.868 25.4574C220.047 25.1922 220.137 24.8807 220.137 24.5227C220.137 24.0753 219.981 23.6958 219.67 23.3842C219.358 23.0694 218.864 22.9119 218.188 22.9119H215.861V26.2926Z" fill="#525866"/>
<g filter="url(#filter0_d_3471_491)">
<rect x="231.7" y="17.5" width="19" height="19" rx="3.5" stroke="#E1E4EA" shape-rendering="crispEdges"/>
<path d="M244.414 22.5519L245.18 23.2915C245.666 23.7607 245.666 24.5209 245.18 24.9902L244.239 25.8987L241.711 23.4604L242.652 22.5519C243.139 22.0827 243.926 22.0827 244.412 22.5519H244.414ZM236.739 28.2618L241.272 23.8846L243.8 26.3247L239.265 30.7001C239.063 30.8953 238.812 31.0379 238.538 31.1168L236.199 31.7812C236.035 31.8282 235.858 31.785 235.738 31.6667C235.617 31.5485 235.57 31.3814 235.619 31.2219L236.307 28.9638C236.389 28.6992 236.537 28.457 236.739 28.2618ZM240.422 30.899H246.333C246.592 30.899 246.8 31.0999 246.8 31.3495C246.8 31.5992 246.592 31.8 246.333 31.8H240.422C240.163 31.8 239.955 31.5992 239.955 31.3495C239.955 31.0999 240.163 30.899 240.422 30.899Z" fill="#99A0AE"/>
</g>
<g clip-path="url(#clip0_3471_491)">
<rect x="76" y="43" width="175.2" height="20" rx="4" fill="#E4FBF8"/>
<rect x="76" y="43" width="76" height="20" rx="4" fill="#1DAF9C"/>
</g>
<defs>
<filter id="filter0_d_3471_491" x="229.2" y="16" width="24" height="24" filterUnits="userSpaceOnUse" color-interpolation-filters="sRGB">
<feFlood flood-opacity="0" result="BackgroundImageFix"/>
<feColorMatrix in="SourceAlpha" type="matrix" values="0 0 0 0 0 0 0 0 0 0 0 0 0 0 0 0 0 0 127 0" result="hardAlpha"/>
<feOffset dy="1"/>
<feGaussianBlur stdDeviation="1"/>
<feComposite in2="hardAlpha" operator="out"/>
<feColorMatrix type="matrix" values="0 0 0 0 0.054902 0 0 0 0 0.0627451 0 0 0 0 0.105882 0 0 0 0.03 0"/>
<feBlend mode="normal" in2="BackgroundImageFix" result="effect1_dropShadow_3471_491"/>
<feBlend mode="normal" in="SourceGraphic" in2="effect1_dropShadow_3471_491" result="shape"/>
</filter>
<clipPath id="clip0_3471_491">
<rect x="76" y="43" width="175.2" height="20" rx="4" fill="white"/>
</clipPath>
</defs>
</svg>
