<svg width="192" height="178" viewBox="0 0 192 178" fill="none" xmlns="http://www.w3.org/2000/svg">
<g filter="url(#filter0_d_2325_946)">
<rect x="20" y="4" width="152" height="138" rx="8" fill="#E4FBF8" fill-opacity="0.5"/>
<rect x="21" y="5" width="150" height="136" rx="7" stroke="#3559E9" stroke-width="2"/>
<rect x="71.5" y="28" width="48" height="48" rx="24" fill="#1DAF9C"/>
<g clip-path="url(#clip0_2325_946)">
<path d="M83.5 44.2C83.5 43.2063 84.3062 42.4 85.3 42.4H91.9H98.5C99.4937 42.4 100.3 43.2063 100.3 44.2V46C100.3 46.6638 99.7637 47.2 99.1 47.2C98.4362 47.2 97.9 46.6638 97.9 46V44.8H93.1V56.8H94.9C95.4025 56.8 95.83 57.1038 96.01 57.5388L95.6612 58.9263C95.455 59.095 95.1887 59.1963 94.9 59.1963H88.9C88.2362 59.1963 87.7 58.66 87.7 57.9963C87.7 57.3325 88.2362 56.7963 88.9 56.7963H90.7V44.7963L85.9 44.8V46C85.9 46.6638 85.3637 47.2 84.7 47.2C84.0362 47.2 83.5 46.6638 83.5 46V44.2ZM96.7562 59.6538L97.3187 57.4C97.3712 57.1863 97.48 56.995 97.6337 56.8413L102.483 51.9963H102.479L105.141 54.6588L100.296 59.5038C100.142 59.6575 99.9475 59.7663 99.7375 59.8188L97.4837 60.3813C97.2775 60.4338 97.0637 60.3738 96.9137 60.2238C96.7638 60.0738 96.7037 59.86 96.7562 59.6538ZM103.33 51.1488L104.432 50.0463C105.021 49.4613 105.97 49.4613 106.555 50.0463L107.091 50.5825C107.676 51.1713 107.676 52.12 107.091 52.705L105.989 53.8075L103.33 51.1488Z" fill="white"/>
</g>
<path d="M82.1685 90.4062V89.2727H88.9228V90.4062H86.1998V98H84.8873V90.4062H82.1685ZM92.1128 98.1321C91.468 98.1321 90.9126 97.9943 90.4466 97.7188C89.9836 97.4403 89.6256 97.0497 89.3728 96.5469C89.1228 96.0412 88.9978 95.4489 88.9978 94.7699C88.9978 94.0994 89.1228 93.5085 89.3728 92.9972C89.6256 92.4858 89.9779 92.0866 90.4296 91.7997C90.8841 91.5128 91.4154 91.3693 92.0234 91.3693C92.3927 91.3693 92.7506 91.4304 93.0972 91.5526C93.4438 91.6747 93.7549 91.8665 94.0305 92.1278C94.306 92.3892 94.5234 92.7287 94.6824 93.1463C94.8415 93.5611 94.9211 94.0653 94.9211 94.6591V95.1108H89.718V94.1562H93.6725C93.6725 93.821 93.6043 93.5241 93.468 93.2656C93.3316 93.0043 93.1398 92.7983 92.8927 92.6477C92.6484 92.4972 92.3614 92.4219 92.0319 92.4219C91.6739 92.4219 91.3614 92.5099 91.0944 92.6861C90.8302 92.8594 90.6256 93.0866 90.4807 93.3679C90.3387 93.6463 90.2677 93.9489 90.2677 94.2756V95.0213C90.2677 95.4588 90.3444 95.831 90.4978 96.1378C90.654 96.4446 90.8714 96.679 91.1498 96.8409C91.4282 97 91.7535 97.0795 92.1256 97.0795C92.3671 97.0795 92.5873 97.0455 92.7861 96.9773C92.985 96.9062 93.1569 96.8011 93.3018 96.6619C93.4466 96.5227 93.5574 96.3509 93.6341 96.1463L94.8401 96.3636C94.7435 96.7187 94.5702 97.0298 94.3202 97.2969C94.0731 97.5611 93.762 97.767 93.387 97.9148C93.0148 98.0597 92.5901 98.1321 92.1128 98.1321ZM97.1161 91.4545L98.5607 94.0028L100.018 91.4545H101.412L99.3704 94.7273L101.429 98H100.035L98.5607 95.554L97.0906 98H95.6928L97.7298 94.7273L95.7184 91.4545H97.1161ZM105.703 91.4545V92.4773H102.128V91.4545H105.703ZM103.087 89.8864H104.361V96.0781C104.361 96.3253 104.398 96.5114 104.472 96.6364C104.546 96.7585 104.641 96.8423 104.757 96.8878C104.877 96.9304 105.006 96.9517 105.145 96.9517C105.247 96.9517 105.337 96.9446 105.413 96.9304C105.49 96.9162 105.55 96.9048 105.592 96.8963L105.823 97.9489C105.749 97.9773 105.644 98.0057 105.507 98.0341C105.371 98.0653 105.2 98.0824 104.996 98.0852C104.661 98.0909 104.348 98.0312 104.058 97.9062C103.769 97.7812 103.534 97.5881 103.355 97.3267C103.176 97.0653 103.087 96.7372 103.087 96.3423V89.8864ZM70.9488 108.03C70.8664 107.771 70.7556 107.54 70.6164 107.335C70.4801 107.128 70.3167 106.952 70.1264 106.807C69.936 106.659 69.7187 106.547 69.4744 106.47C69.2329 106.393 68.9673 106.355 68.6775 106.355C68.186 106.355 67.7429 106.482 67.348 106.734C66.9531 106.987 66.6406 107.358 66.4105 107.847C66.1832 108.332 66.0696 108.928 66.0696 109.632C66.0696 110.339 66.1846 110.937 66.4147 111.426C66.6448 111.915 66.9602 112.286 67.3608 112.538C67.7613 112.791 68.2173 112.918 68.7287 112.918C69.2031 112.918 69.6164 112.821 69.9687 112.628C70.3238 112.435 70.598 112.162 70.7912 111.81C70.9872 111.455 71.0852 111.037 71.0852 110.557L71.4261 110.621H68.9289V109.534H72.3593V110.527C72.3593 111.26 72.2031 111.896 71.8906 112.436C71.5809 112.973 71.1519 113.388 70.6037 113.68C70.0582 113.973 69.4332 114.119 68.7287 114.119C67.9389 114.119 67.2457 113.938 66.6491 113.574C66.0554 113.21 65.5923 112.695 65.2599 112.027C64.9275 111.357 64.7613 110.561 64.7613 109.641C64.7613 108.945 64.8579 108.32 65.0511 107.766C65.2443 107.212 65.5156 106.741 65.865 106.355C66.2173 105.966 66.6306 105.669 67.1051 105.464C67.5823 105.257 68.1037 105.153 68.669 105.153C69.1406 105.153 69.5795 105.223 69.9858 105.362C70.3948 105.501 70.7585 105.699 71.0767 105.955C71.3977 106.21 71.6633 106.514 71.8735 106.866C72.0838 107.216 72.2258 107.604 72.2997 108.03H70.9488ZM76.6776 114.132C76.0327 114.132 75.4773 113.994 75.0114 113.719C74.5483 113.44 74.1904 113.05 73.9375 112.547C73.6875 112.041 73.5625 111.449 73.5625 110.77C73.5625 110.099 73.6875 109.509 73.9375 108.997C74.1904 108.486 74.5427 108.087 74.9944 107.8C75.4489 107.513 75.9802 107.369 76.5881 107.369C76.9574 107.369 77.3154 107.43 77.662 107.553C78.0086 107.675 78.3196 107.866 78.5952 108.128C78.8708 108.389 79.0881 108.729 79.2472 109.146C79.4063 109.561 79.4858 110.065 79.4858 110.659V111.111H74.2827V110.156H78.2373C78.2373 109.821 78.1691 109.524 78.0327 109.266C77.8964 109.004 77.7046 108.798 77.4574 108.648C77.2131 108.497 76.9262 108.422 76.5966 108.422C76.2387 108.422 75.9262 108.51 75.6591 108.686C75.3949 108.859 75.1904 109.087 75.0455 109.368C74.9035 109.646 74.8324 109.949 74.8324 110.276V111.021C74.8324 111.459 74.9091 111.831 75.0625 112.138C75.2188 112.445 75.4361 112.679 75.7145 112.841C75.9929 113 76.3182 113.08 76.6904 113.08C76.9319 113.08 77.152 113.045 77.3509 112.977C77.5498 112.906 77.7216 112.801 77.8665 112.662C78.0114 112.523 78.1222 112.351 78.1989 112.146L79.4049 112.364C79.3083 112.719 79.135 113.03 78.885 113.297C78.6378 113.561 78.3268 113.767 77.9518 113.915C77.5796 114.06 77.1549 114.132 76.6776 114.132ZM82.1017 110.114V114H80.8275V107.455H82.0506V108.52H82.1315C82.2821 108.173 82.5179 107.895 82.8389 107.685C83.1628 107.474 83.5704 107.369 84.0619 107.369C84.5079 107.369 84.8986 107.463 85.2338 107.651C85.569 107.835 85.829 108.111 86.0136 108.477C86.1983 108.844 86.2906 109.297 86.2906 109.837V114H85.0165V109.99C85.0165 109.516 84.8929 109.145 84.6457 108.878C84.3986 108.608 84.0591 108.473 83.6273 108.473C83.3318 108.473 83.069 108.537 82.8389 108.665C82.6116 108.793 82.4312 108.98 82.2977 109.227C82.167 109.472 82.1017 109.767 82.1017 110.114ZM90.7484 114.132C90.1036 114.132 89.5482 113.994 89.0823 113.719C88.6192 113.44 88.2612 113.05 88.0084 112.547C87.7584 112.041 87.6334 111.449 87.6334 110.77C87.6334 110.099 87.7584 109.509 88.0084 108.997C88.2612 108.486 88.6135 108.087 89.0652 107.8C89.5198 107.513 90.051 107.369 90.659 107.369C91.0283 107.369 91.3862 107.43 91.7328 107.553C92.0794 107.675 92.3905 107.866 92.6661 108.128C92.9416 108.389 93.159 108.729 93.318 109.146C93.4771 109.561 93.5567 110.065 93.5567 110.659V111.111H88.3536V110.156H92.3081C92.3081 109.821 92.2399 109.524 92.1036 109.266C91.9672 109.004 91.7754 108.798 91.5283 108.648C91.284 108.497 90.997 108.422 90.6675 108.422C90.3095 108.422 89.997 108.51 89.73 108.686C89.4658 108.859 89.2612 109.087 89.1163 109.368C88.9743 109.646 88.9033 109.949 88.9033 110.276V111.021C88.9033 111.459 88.98 111.831 89.1334 112.138C89.2896 112.445 89.507 112.679 89.7854 112.841C90.0638 113 90.3891 113.08 90.7612 113.08C91.0027 113.08 91.2229 113.045 91.4217 112.977C91.6206 112.906 91.7925 112.801 91.9374 112.662C92.0823 112.523 92.193 112.351 92.2698 112.146L93.4757 112.364C93.3791 112.719 93.2058 113.03 92.9558 113.297C92.7087 113.561 92.3976 113.767 92.0226 113.915C91.6504 114.06 91.2257 114.132 90.7484 114.132ZM94.8984 114V107.455H96.1299V108.494H96.1981C96.3174 108.142 96.5277 107.865 96.8288 107.663C97.1328 107.459 97.4765 107.357 97.86 107.357C97.9396 107.357 98.0333 107.359 98.1413 107.365C98.2521 107.371 98.3387 107.378 98.4012 107.386V108.605C98.3501 108.591 98.2592 108.575 98.1285 108.558C97.9978 108.538 97.8671 108.528 97.7365 108.528C97.4353 108.528 97.1669 108.592 96.9311 108.72C96.6981 108.845 96.5134 109.02 96.3771 109.244C96.2407 109.466 96.1725 109.719 96.1725 110.003V114H94.8984ZM101.278 114.145C100.863 114.145 100.488 114.068 100.153 113.915C99.8179 113.759 99.5522 113.533 99.3562 113.237C99.163 112.942 99.0664 112.58 99.0664 112.151C99.0664 111.781 99.1375 111.477 99.2795 111.239C99.4216 111 99.6133 110.811 99.8548 110.672C100.096 110.533 100.366 110.428 100.664 110.357C100.963 110.286 101.267 110.232 101.576 110.195C101.968 110.149 102.287 110.112 102.531 110.084C102.775 110.053 102.953 110.003 103.064 109.935C103.174 109.866 103.23 109.756 103.23 109.602V109.572C103.23 109.2 103.125 108.912 102.914 108.707C102.707 108.503 102.397 108.401 101.985 108.401C101.557 108.401 101.218 108.496 100.971 108.686C100.727 108.874 100.558 109.082 100.464 109.312L99.2667 109.04C99.4088 108.642 99.6162 108.321 99.8889 108.077C100.164 107.83 100.481 107.651 100.839 107.54C101.197 107.426 101.574 107.369 101.968 107.369C102.23 107.369 102.507 107.401 102.799 107.463C103.095 107.523 103.37 107.634 103.626 107.795C103.885 107.957 104.096 108.189 104.261 108.49C104.426 108.788 104.508 109.176 104.508 109.653V114H103.264V113.105H103.213C103.13 113.27 103.007 113.432 102.842 113.591C102.677 113.75 102.466 113.882 102.207 113.987C101.949 114.092 101.639 114.145 101.278 114.145ZM101.555 113.122C101.907 113.122 102.208 113.053 102.458 112.913C102.711 112.774 102.903 112.592 103.034 112.368C103.167 112.141 103.234 111.898 103.234 111.639V110.795C103.189 110.841 103.101 110.884 102.97 110.923C102.842 110.96 102.696 110.993 102.531 111.021C102.366 111.047 102.206 111.071 102.049 111.094C101.893 111.114 101.762 111.131 101.657 111.145C101.41 111.176 101.184 111.229 100.98 111.303C100.778 111.376 100.616 111.483 100.494 111.622C100.375 111.759 100.315 111.94 100.315 112.168C100.315 112.483 100.432 112.722 100.664 112.884C100.897 113.043 101.194 113.122 101.555 113.122ZM109.189 107.455V108.477H105.613V107.455H109.189ZM106.572 105.886H107.846V112.078C107.846 112.325 107.883 112.511 107.957 112.636C108.031 112.759 108.126 112.842 108.243 112.888C108.362 112.93 108.491 112.952 108.63 112.952C108.733 112.952 108.822 112.945 108.899 112.93C108.976 112.916 109.035 112.905 109.078 112.896L109.308 113.949C109.234 113.977 109.129 114.006 108.993 114.034C108.856 114.065 108.686 114.082 108.481 114.085C108.146 114.091 107.834 114.031 107.544 113.906C107.254 113.781 107.02 113.588 106.841 113.327C106.662 113.065 106.572 112.737 106.572 112.342V105.886ZM110.526 114V107.455H111.8V114H110.526ZM111.17 106.445C110.948 106.445 110.758 106.371 110.599 106.223C110.442 106.072 110.364 105.893 110.364 105.686C110.364 105.476 110.442 105.297 110.599 105.149C110.758 104.999 110.948 104.923 111.17 104.923C111.391 104.923 111.58 104.999 111.736 105.149C111.895 105.297 111.975 105.476 111.975 105.686C111.975 105.893 111.895 106.072 111.736 106.223C111.58 106.371 111.391 106.445 111.17 106.445ZM116.2 114.132C115.586 114.132 115.05 113.991 114.593 113.71C114.136 113.429 113.78 113.036 113.528 112.53C113.275 112.024 113.148 111.433 113.148 110.757C113.148 110.078 113.275 109.484 113.528 108.976C113.78 108.467 114.136 108.072 114.593 107.791C115.05 107.51 115.586 107.369 116.2 107.369C116.813 107.369 117.349 107.51 117.806 107.791C118.263 108.072 118.619 108.467 118.871 108.976C119.124 109.484 119.251 110.078 119.251 110.757C119.251 111.433 119.124 112.024 118.871 112.53C118.619 113.036 118.263 113.429 117.806 113.71C117.349 113.991 116.813 114.132 116.2 114.132ZM116.204 113.062C116.602 113.062 116.931 112.957 117.192 112.747C117.454 112.537 117.647 112.257 117.772 111.908C117.9 111.558 117.964 111.173 117.964 110.753C117.964 110.335 117.9 109.952 117.772 109.602C117.647 109.25 117.454 108.967 117.192 108.754C116.931 108.541 116.602 108.435 116.204 108.435C115.803 108.435 115.471 108.541 115.207 108.754C114.945 108.967 114.751 109.25 114.623 109.602C114.498 109.952 114.435 110.335 114.435 110.753C114.435 111.173 114.498 111.558 114.623 111.908C114.751 112.257 114.945 112.537 115.207 112.747C115.471 112.957 115.803 113.062 116.204 113.062ZM121.875 110.114V114H120.601V107.455H121.824V108.52H121.905C122.055 108.173 122.291 107.895 122.612 107.685C122.936 107.474 123.344 107.369 123.835 107.369C124.281 107.369 124.672 107.463 125.007 107.651C125.342 107.835 125.602 108.111 125.787 108.477C125.972 108.844 126.064 109.297 126.064 109.837V114H124.79V109.99C124.79 109.516 124.666 109.145 124.419 108.878C124.172 108.608 123.832 108.473 123.401 108.473C123.105 108.473 122.842 108.537 122.612 108.665C122.385 108.793 122.205 108.98 122.071 109.227C121.94 109.472 121.875 109.767 121.875 110.114Z" fill="#1DAF9C"/>
<path d="M147 21C147 16.5817 150.582 13 155 13C159.418 13 163 16.5817 163 21C163 25.4183 159.418 29 155 29C150.582 29 147 25.4183 147 21Z" fill="#1DAF9C"/>
<path d="M151 21C151 18.7909 152.791 17 155 17C157.209 17 159 18.7909 159 21C159 23.2091 157.209 25 155 25C152.791 25 151 23.2091 151 21Z" fill="white"/>
</g>
<defs>
<filter id="filter0_d_2325_946" x="0" y="0" width="192" height="178" filterUnits="userSpaceOnUse" color-interpolation-filters="sRGB">
<feFlood flood-opacity="0" result="BackgroundImageFix"/>
<feColorMatrix in="SourceAlpha" type="matrix" values="0 0 0 0 0 0 0 0 0 0 0 0 0 0 0 0 0 0 127 0" result="hardAlpha"/>
<feMorphology radius="12" operator="erode" in="SourceAlpha" result="effect1_dropShadow_2325_946"/>
<feOffset dy="16"/>
<feGaussianBlur stdDeviation="16"/>
<feColorMatrix type="matrix" values="0 0 0 0 0.0533333 0 0 0 0 0.0693333 0 0 0 0 0.106667 0 0 0 0.1 0"/>
<feBlend mode="normal" in2="BackgroundImageFix" result="effect1_dropShadow_2325_946"/>
<feBlend mode="normal" in="SourceGraphic" in2="effect1_dropShadow_2325_946" result="shape"/>
</filter>
<clipPath id="clip0_2325_946">
<rect width="24" height="24" fill="white" transform="translate(83.5 40)"/>
</clipPath>
</defs>
</svg>
